<svg width="88" height="30" viewBox="0 0 88 30" fill="none" xmlns="http://www.w3.org/2000/svg">
<path d="M0.902832 0H87.981V30H0.902832V0Z" fill="#6F6F6F"/>
<path d="M59.5561 9.25806H62.8135V9.88865C64.7738 9.08851 66.6784 8.70528 68.2217 10.4414C69.1008 10.0698 69.901 9.58439 70.7685 9.38232C73.2932 8.78425 75.0502 10.3114 74.7355 12.886C74.4208 15.4606 73.9226 18.0248 73.5068 20.6052H70.2053C70.3853 19.4555 70.5536 18.3406 70.7464 17.2246C70.9485 15.9855 71.1633 14.7452 71.3666 13.5084C71.3649 13.4893 71.3685 13.47 71.377 13.4527C71.5013 12.5167 71.1854 11.8071 70.5548 11.6271C69.8673 11.4355 69.0114 11.8187 68.7072 12.663C68.4029 13.5073 68.2891 14.405 68.1265 15.2887C67.8443 16.9459 67.597 18.624 67.3032 20.2823C67.2746 20.3645 67.2271 20.4388 67.1646 20.4993C67.1021 20.5599 67.0262 20.6049 66.9431 20.6307C65.9735 20.6644 64.9933 20.6412 63.9563 20.6412C64.1595 19.3568 64.3627 18.106 64.5648 16.8553C64.7564 15.6499 64.9712 14.4549 65.1454 13.2553C65.2465 12.6015 64.9538 11.9593 64.458 11.7119C63.9621 11.4645 63.3199 11.6213 62.824 12.1056C62.1934 12.7257 62.1597 13.5479 62.0239 14.3364C61.6755 16.4268 61.348 18.5171 60.9984 20.6249H57.7084C58.3286 16.8193 58.9371 13.0671 59.5561 9.25806ZM29.8534 19.4671C29.505 21.6306 29.1659 23.6931 28.8163 25.7892H25.5147C26.4159 20.2672 27.3066 14.7801 28.2078 9.26967H31.5094C31.4757 9.55071 31.4304 9.80968 31.4084 10.035C32.0842 9.776 32.7381 9.416 33.436 9.26967C35.8027 8.76218 37.763 10.0013 38.4296 12.3344C39.3865 15.6801 37.0186 19.6808 33.6055 20.4414C32.2306 20.7294 30.9914 20.4472 29.8534 19.4671ZM35.1036 14.5989C35.1152 13.3215 34.631 12.4807 33.8262 12.1764C33.0214 11.8722 32.0912 12.2101 31.4037 13.0439C31.0835 13.4232 30.8434 13.8634 30.6981 14.3381C30.5528 14.8128 30.5052 15.3119 30.5583 15.8055C30.6373 16.6393 30.9868 17.3373 31.8357 17.6299C32.6486 17.9121 33.3454 17.6078 33.9435 17.0562C34.6374 16.4209 35.054 15.5384 35.1036 14.5989ZM3.50684 17.8215C4.26168 17.1909 4.99447 16.5824 5.72725 15.9634C6.05358 16.3362 6.33578 16.7183 6.67372 17.0342C7.48663 17.8122 8.44238 17.8227 9.46085 17.4743C10.441 17.1364 11.0716 16.4825 11.2516 15.4339C11.3677 14.7243 11.1622 14.1274 10.542 13.7326C10.1031 13.4515 9.62924 13.2251 9.16704 12.9777C8.886 12.8314 8.59335 12.6955 8.31116 12.5608C4.34065 10.6214 4.99447 6.2735 7.85709 4.26561C9.76163 2.93591 11.7335 3.1043 13.717 4.05193C14.1444 4.25516 14.5392 4.53619 14.9945 4.80678C14.3523 5.60691 13.7554 6.35015 13.1689 7.07132C12.6393 6.83906 12.1435 6.56499 11.6139 6.40705C10.3632 6.02382 9.23672 6.54177 8.66187 7.71468C8.27864 8.50321 8.44703 9.21277 9.20188 9.6529C9.95673 10.093 10.7348 10.4298 11.4896 10.8351C12.8983 11.5911 13.9284 12.6607 14.149 14.319C14.4974 16.8658 13.22 19.0734 10.8591 20.1256C8.05915 21.3496 5.19886 20.4809 3.50684 17.8215ZM16.6691 9.25806H19.9823C19.5874 11.6689 19.2158 14.0589 18.821 16.4361C18.663 17.3942 18.9371 17.7658 19.8917 17.8448C21.0855 17.9458 21.6337 17.4964 21.8183 16.3351C22.1899 13.9904 22.5848 11.6469 22.9796 9.25806H26.2812C26.0559 10.6888 25.8306 12.0975 25.5937 13.5177C25.4358 14.4979 25.2662 15.478 25.0978 16.4582C24.7262 18.6553 23.2606 20.1325 21.0751 20.4925C19.8348 20.6958 18.6073 20.7062 17.4123 20.2603C15.9584 19.7086 15.1931 18.3453 15.452 16.8007C15.8573 14.3179 16.2522 11.8164 16.6691 9.25806ZM57.4158 15.4223H50.3318C50.2424 16.594 50.8056 17.7658 51.6511 18.0364C53.0597 18.5009 53.7914 17.5521 54.4789 16.5371C55.2569 16.8309 56.0234 17.1178 56.7887 17.4046C55.8422 19.4114 53.0144 21.4053 50.1971 20.4705C48.2136 19.8166 47.2671 18.2733 47.0755 16.2665C46.7736 13.1682 49.0765 10.0245 52.0854 9.34864C54.6995 8.76799 56.9989 10.2777 57.3926 12.9487C57.5052 13.7314 57.4158 14.5652 57.4158 15.4223ZM50.6314 13.3935H54.7111C54.3732 12.116 53.7077 11.4436 52.853 11.4332C51.917 11.4216 51.0042 12.2217 50.6314 13.3935ZM82.939 16.5371C83.7159 16.8309 84.4707 17.1178 85.2267 17.3942C83.8854 20.143 79.9416 21.8791 77.2706 19.7261C75.7377 18.487 75.2767 16.7961 75.5809 14.9264C75.9978 12.2775 77.4622 10.3625 80.0427 9.48335C83.0063 8.46953 85.7331 10.3508 85.9247 13.484C85.97 14.1146 85.9363 14.7452 85.9363 15.4223H78.7803C78.6572 16.5267 79.2541 17.6868 80.088 18.0364C80.9891 18.43 81.7672 18.0364 82.939 16.5371ZM83.0969 13.4271C83.04 12.382 82.2178 11.4529 81.3271 11.4216C80.3585 11.3879 79.2205 12.4133 79.1206 13.4271H83.0969ZM47.4994 9.24645C47.2068 10.2382 46.9362 11.151 46.654 12.1091C46.5329 12.0927 46.4128 12.0703 46.294 12.0417C44.7274 11.5563 43.3756 12.3564 43.0818 13.9904C42.7218 15.9855 42.4175 17.9795 42.09 19.9746C42.0564 20.1767 42.0111 20.3799 41.9739 20.6052H38.6874C39.3076 16.8077 39.9161 13.0439 40.5351 9.25806H43.803C43.7925 9.51703 43.7693 9.76555 43.7472 10.0582C44.8853 9.20115 46.136 9.08851 47.4994 9.24645Z" fill="white"/>
</svg>
