<svg width="153" height="30" viewBox="0 0 153 30" fill="none" xmlns="http://www.w3.org/2000/svg">
<path d="M145.631 11.9032L140.353 16.7508L145.631 21.5985V24.3993H145.47L137.606 17.2356V24.0223H135.344V3.44674H137.606V16.3199L145.47 9.21005H145.685V11.9032H145.631ZM42.6997 24.0223H54.334V21.7062H45.0697V4.14696H42.6997V24.0223ZM62.4135 9.21005C58.8585 9.21005 55.5729 12.1186 55.5729 16.8047C55.5729 21.3292 58.5353 24.3455 62.8444 24.3455C64.7296 24.3455 66.507 23.8607 68.1229 22.7296V20.2519C66.4532 21.6523 64.6218 22.2448 62.9521 22.2448C60.3667 22.2448 58.1044 20.6289 57.889 17.6665H68.7693C68.7693 17.3972 68.877 16.7508 68.877 16.4815C68.8231 11.6877 65.9145 9.21005 62.4135 9.21005ZM62.4135 11.2568C64.4064 11.2568 66.507 12.5495 66.5609 15.6736H57.8351C57.9967 13.2498 59.828 11.2568 62.4135 11.2568ZM100.71 9.21005C98.7708 9.21005 97.3703 10.2334 96.5624 11.7416C95.8622 10.1257 94.5695 9.21005 92.5227 9.21005C90.7452 9.21005 89.3987 10.2334 88.6446 11.6339H88.5369L88.2675 9.47937H86.4901V24.0223H88.8062V14.8656C88.8062 13.0882 89.8834 11.4184 91.9302 11.4184C93.8693 11.4184 94.7311 12.5495 94.7311 14.6502V24.0223H97.0472V14.7041C97.0472 13.0343 98.1783 11.4184 100.117 11.4184C102.11 11.4184 102.972 12.5495 102.972 14.6502V24.0223H105.288V14.327C105.342 11.3107 103.888 9.21005 100.71 9.21005ZM114.66 9.21005C111.213 9.21005 107.981 12.1186 107.981 16.8047C107.981 21.383 111.213 24.3455 114.66 24.3455C116.815 24.3455 118.862 23.3221 119.993 21.3292H120.047L120.316 24.0223H122.201V9.47937H120.316L120.047 12.1725H119.993C118.915 10.2334 116.869 9.21005 114.66 9.21005ZM115.091 11.3646C117.838 11.3646 119.885 13.5729 119.885 16.7508C119.885 19.9287 117.838 22.1371 115.091 22.1371C112.398 22.1371 110.297 19.9826 110.297 16.7508C110.297 13.5191 112.398 11.3646 115.091 11.3646ZM132.058 9.31778C130.819 9.31778 128.88 9.91027 127.91 11.7955L127.695 9.47937H125.864V24.0223H128.18V15.6736C128.18 12.3341 130.873 11.2568 133.135 11.7416V9.4255C132.704 9.37164 132.435 9.31778 132.058 9.31778ZM83.5276 9.15619H83.366L77.2796 15.1888L71.2469 9.15619H71.0854V12.0648L75.7714 16.7508L71.0854 21.383V24.3455H71.2469L77.2257 18.3129L83.3122 24.3993H83.5276V21.4369L78.8416 16.7508L83.5276 12.0109V9.15619ZM146.762 3.60833V3.28516H149.186V3.60833H148.163V6.03215H147.786V3.60833H146.762ZM150.371 3.28516L151.395 5.60125L152.418 3.28516H152.903V6.03215H152.633V3.71606L151.61 5.97829H151.287L150.264 3.71606V5.97829H149.94V3.28516H150.371Z" fill="#6F6F6F"/>
<path d="M30.2038 24.1305V0H24.3328L15.23 9.1028L30.2038 24.1305Z" fill="#6F6F6F"/>
<path d="M0.202148 5.87109V30.0016H6.07318L15.176 20.8449L0.202148 5.87109Z" fill="#C6C6C6"/>
<path d="M6.07275 30.0004H30.2032V24.1293L21.1004 14.9727L6.07275 30.0004Z" fill="#262626"/>
<path d="M24.3326 0H0.202148V5.87103L9.30494 14.9738L24.3326 0Z" fill="#9D9D9D"/>
</svg>
