<svg width="87" height="26" viewBox="0 0 87 26" fill="none" xmlns="http://www.w3.org/2000/svg">
<path d="M64.5454 25.0874L71.7351 17.1243L64.5454 9.16016H72.1313L75.6923 13.0286L79.1213 9.16016H86.4426L79.2869 17.0914L86.5408 25.0874H78.9237L75.395 21.1871L71.8997 25.0874H64.5454Z" fill="#9D9D9D"/>
<path d="M64.5449 5.59209H56.402V9.16239H64.5449V14.5431H56.402V19.482H64.5449V25.0896H50.417V0H64.5449V5.59209Z" fill="#9D9D9D"/>
<path d="M44.4575 0V10.2679H44.3919C43.0725 8.77295 41.424 8.25346 39.5112 8.25346C35.593 8.25346 32.6416 10.879 31.6055 14.3503C30.424 10.5254 27.377 8.18178 22.8587 8.18178C19.1895 8.18178 16.292 9.80528 14.7799 12.4508V9.16276H7.19548V5.59283H15.4722V0H0.43457V25.09H7.19548V14.5431H13.9343C13.7334 15.3179 13.6262 16.1474 13.6262 17.0227C13.6262 22.2564 17.6823 25.9287 22.8587 25.9287C27.2117 25.9287 30.0803 23.9143 31.5977 20.2416H25.8038C25.02 21.3449 24.4256 21.6726 22.8587 21.6726C21.0419 21.6726 19.4755 20.1101 19.4755 18.2579H31.2731C31.7847 22.4149 35.0698 26 39.5779 26C41.5226 26 43.303 25.0571 44.3919 23.465H44.4575V25.0892H50.4174V0H44.4575ZM19.6636 14.6181C20.0396 13.0246 21.2934 11.983 22.8587 11.983C24.5819 11.983 25.772 12.9924 26.085 14.6181C26.2169 14.6181 19.6636 14.6181 19.6636 14.6181ZM40.8407 21.2695C38.6438 21.2695 37.2787 19.2518 37.2787 17.145C37.2787 14.893 38.4661 12.7275 40.8407 12.7275C43.303 12.7275 44.284 14.893 44.284 17.145C44.2836 19.2806 43.2442 21.2695 40.8407 21.2695Z" fill="#6F6F6F"/>
</svg>
