<svg width="153" height="30" viewBox="0 0 153 30" fill="none" xmlns="http://www.w3.org/2000/svg">
<path fill-rule="evenodd" clip-rule="evenodd" d="M23.9222 7.05858C23.9222 10.9573 20.7596 14.118 16.8583 14.118C12.9568 14.118 9.79422 10.9573 9.79422 7.05858C9.79422 3.16065 12.9568 0 16.8583 0C20.7596 0 23.9222 3.16065 23.9222 7.05858ZM7.68172 15.8828C3.78038 15.8828 0.617676 19.0425 0.617676 22.9413C0.617676 26.8397 3.78038 30 7.68172 30C11.5832 30 14.7461 26.8397 14.7461 22.9413C14.7461 19.0425 11.5832 15.8828 7.68172 15.8828ZM26.0347 15.8822C22.1333 15.8822 18.9706 19.0425 18.9706 22.9413C18.9706 26.8397 22.1333 30 26.0347 30C29.936 30 33.0987 26.8397 33.0987 22.9413C33.0987 19.0425 29.936 15.8822 26.0347 15.8822Z" fill="#9D9D9D"/>
<path fill-rule="evenodd" clip-rule="evenodd" d="M57.9543 22.8547C58.0465 23.9019 58.8847 25.2348 60.3369 25.2348H61.1866C61.516 25.2348 61.7859 24.965 61.7859 24.6356V5.96233H61.7823C61.765 5.64774 61.505 5.39579 61.1866 5.39579H58.5537C58.2353 5.39579 57.9752 5.64774 57.9575 5.96233H57.9543V7.47964C56.3412 5.49268 53.7978 4.66797 51.2473 4.66797C45.4501 4.66797 40.7505 9.36764 40.7505 15.1653C40.7505 20.9633 45.4501 25.6632 51.2473 25.6632V25.6637C53.7978 25.6637 56.5773 24.6742 57.954 22.8523L57.9543 22.8547ZM51.2577 21.9892C47.5706 21.9892 44.5816 18.9343 44.5816 15.1653C44.5816 11.397 47.5706 8.34197 51.2577 8.34197C54.9446 8.34197 57.9333 11.397 57.9333 15.1653C57.9333 18.9343 54.9446 21.9892 51.2577 21.9892Z" fill="#6F6F6F"/>
<path fill-rule="evenodd" clip-rule="evenodd" d="M100.85 22.8547C100.942 23.9019 101.78 25.2348 103.232 25.2348H104.082C104.411 25.2348 104.681 24.965 104.681 24.6356V5.96233H104.678C104.661 5.64774 104.4 5.39579 104.082 5.39579H101.449C101.131 5.39579 100.871 5.64774 100.853 5.96233H100.85V7.47964C99.2365 5.49268 96.6932 4.66797 94.1427 4.66797C88.3454 4.66797 83.646 9.36764 83.646 15.1653C83.646 20.9633 88.3454 25.6632 94.1427 25.6632V25.6637C96.6932 25.6637 99.4729 24.6742 100.85 22.8523L100.85 22.8547ZM94.1529 21.9892C90.4662 21.9892 87.4769 18.9343 87.4769 15.1653C87.4769 11.397 90.4662 8.34197 94.1529 8.34197C97.8401 8.34197 100.829 11.397 100.829 15.1653C100.829 18.9343 97.8401 21.9892 94.1529 21.9892Z" fill="#6F6F6F"/>
<path fill-rule="evenodd" clip-rule="evenodd" d="M148.802 22.8547C148.895 23.9019 149.733 25.2348 151.185 25.2348H152.035C152.364 25.2348 152.634 24.965 152.634 24.6356V5.96233H152.63C152.613 5.64774 152.353 5.39579 152.035 5.39579H149.402C149.083 5.39579 148.823 5.64774 148.806 5.96233H148.802V7.47964C147.189 5.49268 144.646 4.66797 142.096 4.66797C136.298 4.66797 131.599 9.36764 131.599 15.1653C131.599 20.9633 136.298 25.6632 142.096 25.6632V25.6637C144.646 25.6637 147.425 24.6742 148.802 22.8523L148.802 22.8547ZM142.106 21.9892C138.419 21.9892 135.43 18.9343 135.43 15.1653C135.43 11.397 138.419 8.34197 142.106 8.34197C145.793 8.34197 148.782 11.397 148.782 15.1653C148.782 18.9343 145.793 21.9892 142.106 21.9892Z" fill="#6F6F6F"/>
<path fill-rule="evenodd" clip-rule="evenodd" d="M128.272 23.5026L128.27 13.84H128.271C128.271 8.39323 124.834 4.71875 119.355 4.71875C116.739 4.71875 114.595 6.23128 113.838 7.53058C113.674 6.51463 113.135 5.44673 111.462 5.44673H110.61C110.28 5.44673 110.011 5.71669 110.011 6.0461V22.9072V22.9098V24.721H110.014C110.031 25.0351 110.292 25.2873 110.61 25.2873H113.243C113.283 25.2873 113.323 25.2826 113.361 25.2751C113.378 25.2717 113.395 25.2649 113.412 25.2601C113.431 25.254 113.452 25.2494 113.47 25.2418C113.494 25.232 113.515 25.219 113.537 25.2069C113.547 25.2003 113.559 25.1957 113.569 25.1889C113.595 25.172 113.619 25.1516 113.642 25.1307C113.646 25.1269 113.651 25.1243 113.655 25.1208C113.681 25.0955 113.705 25.0676 113.726 25.0386L113.726 25.0381C113.792 24.9476 113.832 24.8386 113.839 24.721H113.842V13.6902C113.842 10.7649 116.214 8.39323 119.139 8.39323C122.065 8.39323 124.436 10.7649 124.436 13.6902L124.439 22.9104L124.439 22.9072C124.439 22.9154 124.441 22.9238 124.441 22.9326V24.721H124.444C124.461 25.0351 124.721 25.2873 125.04 25.2873H127.673C127.713 25.2873 127.753 25.2826 127.791 25.2751C127.806 25.2722 127.821 25.266 127.836 25.2617C127.858 25.2555 127.88 25.2501 127.9 25.2418C127.922 25.2328 127.942 25.2204 127.962 25.2089C127.974 25.2019 127.987 25.1968 127.999 25.1889C128.024 25.1729 128.046 25.1536 128.068 25.1345C128.073 25.1294 128.08 25.1256 128.085 25.1203C128.11 25.0963 128.132 25.0703 128.152 25.043C128.154 25.041 128.155 25.0394 128.157 25.0373C128.222 24.9476 128.262 24.8394 128.268 24.7226C128.268 24.7218 128.269 24.721 128.269 24.721H128.272V23.5029L128.272 23.5026Z" fill="#6F6F6F"/>
<path fill-rule="evenodd" clip-rule="evenodd" d="M68.0755 20.1805C69.8332 21.3983 71.7517 21.9897 73.5955 21.9897C75.3519 21.9897 77.1678 21.079 77.1678 19.4942C77.1678 17.3781 73.2109 17.0489 70.725 16.2039C68.2385 15.359 66.0969 13.6123 66.0969 10.7838C66.0969 6.45556 69.9534 4.66797 73.5528 4.66797C75.8333 4.66797 78.1864 5.42001 79.7119 6.49732C80.2373 6.89541 79.9173 7.35247 79.9173 7.35247L78.4611 9.43234C78.2974 9.66661 78.0112 9.869 77.6004 9.61545C77.1896 9.36206 75.7487 8.34213 73.5528 8.34213C71.3567 8.34213 70.0338 9.35633 70.0338 10.6134C70.0338 12.1208 71.7531 12.5949 73.7669 13.1087C77.2763 14.0547 81.1045 15.1918 81.1045 19.4942C81.1045 23.3076 77.5376 25.6643 73.5955 25.6643C70.608 25.6643 68.0645 24.8126 65.9314 23.2472C65.4869 22.8024 65.7973 22.3895 65.7973 22.3895L67.2464 20.3202C67.5412 19.9332 67.913 20.0682 68.0755 20.1805Z" fill="#6F6F6F"/>
</svg>
