<svg width="93" height="30" viewBox="0 0 93 30" fill="none" xmlns="http://www.w3.org/2000/svg">
<path d="M40.0398 15.7887C40.0398 20.1044 36.614 23.2845 32.4098 23.2845C28.2056 23.2845 24.7798 20.1044 24.7798 15.7887C24.7798 11.4427 28.2056 8.29297 32.4098 8.29297C36.614 8.29297 40.0398 11.4427 40.0398 15.7887ZM36.6997 15.7887C36.6997 13.0919 34.7142 11.2467 32.4098 11.2467C30.1054 11.2467 28.1198 13.0919 28.1198 15.7887C28.1198 18.4585 30.1054 20.3308 32.4098 20.3308C34.7142 20.3308 36.6997 18.4552 36.6997 15.7887Z" fill="#9D9D9D"/>
<path d="M56.5007 15.7887C56.5007 20.1044 53.0749 23.2845 48.8707 23.2845C44.6665 23.2845 41.2407 20.1044 41.2407 15.7887C41.2407 11.4461 44.6665 8.29297 48.8707 8.29297C53.0749 8.29297 56.5007 11.4427 56.5007 15.7887ZM53.1607 15.7887C53.1607 13.0919 51.1751 11.2467 48.8707 11.2467C46.5663 11.2467 44.5808 13.0919 44.5808 15.7887C44.5808 18.4585 46.5663 20.3308 48.8707 20.3308C51.1751 20.3308 53.1607 18.4552 53.1607 15.7887Z" fill="#9D9D9D"/>
<path d="M72.2754 8.74582V22.203C72.2754 27.7387 68.9627 29.9996 65.0466 29.9996C61.3602 29.9996 59.1415 27.5697 58.3047 25.5826L61.2127 24.3896C61.7305 25.6096 62.9993 27.0493 65.0431 27.0493C67.5499 27.0493 69.1033 25.5251 69.1033 22.6559V21.5778H68.9867C68.2392 22.4869 66.7989 23.2811 64.9814 23.2811C61.1784 23.2811 57.6943 20.0165 57.6943 15.8158C57.6943 11.5846 61.1784 8.29297 64.9814 8.29297C66.7955 8.29297 68.2357 9.08715 68.9867 9.96921H69.1033V8.7492H72.2754V8.74582ZM69.34 15.8158C69.34 13.1764 67.5533 11.2467 65.2798 11.2467C62.9753 11.2467 61.0447 13.1764 61.0447 15.8158C61.0447 18.4281 62.9753 20.3308 65.2798 20.3308C67.5533 20.3308 69.34 18.4281 69.34 15.8158Z" fill="#6F6F6F"/>
<path d="M77.5053 0.859375V22.8262H74.2476V0.859375H77.5053Z" fill="#9D9D9D"/>
<path d="M90.2006 18.2552L92.7931 19.9585C91.9564 21.1785 89.94 23.2806 86.4559 23.2806C82.1351 23.2806 78.9082 19.9889 78.9082 15.7848C78.9082 11.3272 82.1625 8.28906 86.0821 8.28906C90.0291 8.28906 91.9598 11.3847 92.5908 13.0576L92.9371 13.9092L82.7695 18.0592C83.5479 19.5631 84.7584 20.3303 86.4559 20.3303C88.1568 20.3303 89.3364 19.5057 90.2006 18.2552ZM82.2208 15.5584L89.0175 12.7771C88.6437 11.8409 87.519 11.1887 86.1953 11.1887C84.4978 11.1887 82.1351 12.6655 82.2208 15.5584Z" fill="#9D9D9D"/>
<path d="M12.4494 13.8357V10.6556H23.3235C23.4298 11.2098 23.4846 11.8655 23.4846 12.5752C23.4846 14.9611 22.8228 17.9114 20.6898 20.0135C18.6152 22.1426 15.9644 23.2781 12.4529 23.2781C5.94421 23.2781 0.471191 18.0534 0.471191 11.639C0.471191 5.22473 5.94421 0 12.4529 0C16.0535 0 18.6186 1.39236 20.5458 3.20716L18.2688 5.45115C16.8868 4.1737 15.0145 3.18012 12.4494 3.18012C7.69654 3.18012 3.97928 6.95504 3.97928 11.639C3.97928 16.323 7.69654 20.098 12.4494 20.098C15.5323 20.098 17.288 18.878 18.4128 17.7695C19.325 16.8705 19.9251 15.5863 20.1617 13.8323L12.4494 13.8357Z" fill="#6F6F6F"/>
</svg>
