<svg width="129" height="30" viewBox="0 0 129 30" fill="none" xmlns="http://www.w3.org/2000/svg">
<path d="M46.1201 10.6723V12.3725H46.1721C46.7839 11.4622 47.7995 10.3902 50.0507 10.3902C51.802 10.3902 53.1455 11.2816 53.7213 12.6282H53.7733C54.2651 11.9474 54.8289 11.4321 55.4607 11.0672C56.2084 10.6347 57.0401 10.3864 58.0877 10.3864C60.4588 10.3864 62.5581 11.9286 62.5581 15.8179V23.1941H58.9434V16.3332C58.9434 14.3623 58.2317 13.2225 56.7522 13.2225C55.6686 13.2225 54.8809 13.9071 54.581 14.7497C54.4771 15.0393 54.4291 15.4343 54.4291 15.7653V23.1979H50.8144V16.0549C50.8144 14.3811 50.1307 13.2188 48.6712 13.2188C47.5036 13.2188 46.7719 14.0839 46.472 14.8249C46.3441 15.1409 46.3041 15.5057 46.3041 15.848V23.1941H42.6854V10.6723H46.1201ZM81.2152 10.6723V13.0345H81.3151C81.9789 11.229 83.5543 10.3902 84.9378 10.3902C85.2857 10.3902 85.4776 10.4165 85.7575 10.4692V13.7491C85.4256 13.704 85.1177 13.6589 84.6859 13.6589C83.1185 13.6589 82.0269 14.5165 81.751 15.8593C81.691 16.1376 81.671 16.4386 81.671 16.7846V23.1979H77.9604V10.6723H81.2152ZM90.7956 6.52344V10.4654H93.9305V13.6551H90.7956V18.3607C90.7956 19.884 91.2075 20.6213 92.431 20.6213C93.0068 20.6213 93.4306 20.5536 93.7985 20.4671L93.8465 23.1113C93.3547 23.2844 92.3071 23.4724 91.2434 23.4724C89.9919 23.4724 88.9483 23.0624 88.3125 22.4268C87.5848 21.7008 87.2489 20.5122 87.2489 18.8195V6.52344H90.7956ZM40.1664 23.1941H36.5677V6.52344H40.1664V23.1941ZM30.5699 18.7218C30.5699 18.9512 30.5499 19.1919 30.4819 19.3988C30.202 20.2677 29.2464 21.0012 28.0548 21.0012C27.0592 21.0012 26.2675 20.4708 26.2675 19.3461C26.2675 17.6272 28.2827 17.1495 30.5739 17.1608V18.7218H30.5699ZM34.1646 15.7239C34.1646 12.884 32.877 10.3902 28.5227 10.3902C26.2875 10.3902 24.5121 10.9807 23.5445 11.5073L24.2522 13.7868C25.1359 13.2602 26.5474 12.8276 27.8829 12.8276C30.0941 12.8238 30.4539 14.0049 30.4539 14.761V14.9415C25.6357 14.934 22.5929 16.5025 22.5929 19.6997C22.5929 21.6519 24.1403 23.48 26.8353 23.48C28.4947 23.48 29.8782 22.8593 30.7099 21.8625H30.7898C30.7898 21.8625 31.3416 24.0254 34.3725 23.1979C34.2126 22.2951 34.1606 21.3359 34.1606 20.1812V15.7239H34.1646ZM4.51554 6.52344C4.88741 8.28755 5.94302 13.4106 5.94302 13.4106C6.38685 15.517 6.7947 17.725 7.10259 19.4703H7.15857C7.45846 17.6159 7.93028 15.8593 8.43409 13.6852L10.2134 6.52344H14.152L15.8154 13.8695C16.2512 15.912 16.5991 17.488 16.875 19.3875H16.927C17.2268 17.4692 17.6187 15.8292 18.0465 13.7303L19.6459 6.52344H23.4245L18.7423 23.1941C15.7594 23.8072 14.6158 22.6788 14.208 20.8883C13.8001 19.0941 13.0004 15.6825 13.0004 15.6825C12.5886 13.8131 12.2687 12.4966 12.0448 10.5783H11.9888C11.6689 12.4778 11.333 13.8093 10.8372 15.6788L8.87393 23.1979C5.82706 23.7696 4.77145 22.9233 4.18767 20.625C3.68385 18.6578 0.541016 6.5272 0.541016 6.5272H4.51554V6.52344ZM71.9626 18.7218C71.9626 18.9512 71.9426 19.1919 71.8746 19.3988C71.5947 20.2677 70.6391 21.0012 69.4475 21.0012C68.4519 21.0012 67.6602 20.4708 67.6602 19.3461C67.6602 17.6272 69.6754 17.1495 71.9666 17.1608V18.7218H71.9626ZM75.5573 15.7239C75.5573 12.884 74.2697 10.3902 69.9153 10.3902C67.6802 10.3902 65.9048 10.9807 64.9372 11.5073L65.6449 13.7868C66.5286 13.2602 67.9401 12.8276 69.2756 12.8276C71.4828 12.8238 71.8466 14.0049 71.8466 14.761V14.9415C67.0324 14.934 63.9895 16.5025 63.9895 19.6997C63.9895 21.6519 65.541 23.48 68.232 23.48C69.8874 23.48 71.2748 22.8593 72.1025 21.8625H72.1865C72.1865 21.8625 72.7383 24.0254 75.7692 23.1979C75.6092 22.2951 75.5573 21.3359 75.5573 20.1812V15.7239Z" fill="#6F6F6F"/>
<path d="M108.518 17.4509C108.873 18.0597 108.849 18.7392 108.471 19.0495L101.926 23.5703C101.244 23.9592 100.224 23.4878 99.6462 22.502C99.0643 21.5122 99.1679 20.4085 99.8495 20.0196L107.095 16.6968C107.55 16.524 108.164 16.8421 108.518 17.4509ZM117.131 17.4509C117.49 16.8421 118.1 16.5279 118.554 16.6929L125.804 20.0157C126.486 20.4046 126.585 21.5082 126.007 22.498C125.426 23.4839 124.401 23.9513 123.724 23.5664L117.179 19.0456C116.805 18.7392 116.777 18.0558 117.131 17.4509ZM112.823 19.9018C113.536 19.9018 114.122 20.2632 114.202 20.7384L114.907 28.586C114.907 29.3637 113.987 30 112.827 30C111.671 30 110.746 29.3637 110.746 28.586L111.448 20.7384C111.528 20.2632 112.113 19.9018 112.823 19.9018ZM117.179 10.9544L123.724 6.42969C124.401 6.04085 125.426 6.50825 126.007 7.49804C126.585 8.48782 126.486 9.59152 125.804 9.98036L118.554 13.3071C118.1 13.4721 117.486 13.1579 117.131 12.5491C116.777 11.9403 116.805 11.2608 117.179 10.9544ZM107.095 13.3071L99.8495 9.98036C99.1719 9.59152 99.0683 8.48782 99.6462 7.49804C100.224 6.50825 101.248 6.04085 101.926 6.42969L108.471 10.9544C108.849 11.2569 108.873 11.9403 108.518 12.5491C108.164 13.1579 107.55 13.4721 107.095 13.3071ZM111.448 9.26159L110.746 1.41398C110.746 0.636292 111.667 0 112.827 0C113.987 0 114.907 0.636292 114.907 1.41398L114.202 9.26159C114.122 9.73291 113.536 10.0982 112.823 10.0982C112.113 10.0982 111.528 9.73291 111.448 9.26159ZM127.777 23.5389V23.3425H127.956C128.016 23.3425 128.056 23.3818 128.056 23.4407C128.056 23.4957 128.016 23.5389 127.956 23.5389H127.777ZM127.63 23.8963C127.63 23.9159 127.646 23.9356 127.669 23.9356H127.745C127.765 23.9356 127.785 23.9159 127.785 23.8963V23.6724H127.909L128.008 23.9081C128.016 23.9238 128.028 23.9356 128.044 23.9356H128.136C128.164 23.9356 128.184 23.9081 128.172 23.8806C128.136 23.8099 128.1 23.7353 128.064 23.6606C128.124 23.641 128.216 23.5821 128.216 23.4407C128.216 23.2914 128.092 23.205 127.968 23.205H127.669C127.65 23.205 127.63 23.2247 127.63 23.2443V23.8963ZM127.307 23.5703C127.307 23.2522 127.57 22.9929 127.893 22.9929C128.216 22.9929 128.479 23.2482 128.479 23.5703C128.479 23.8885 128.22 24.1477 127.893 24.1477C127.566 24.1477 127.307 23.8885 127.307 23.5703ZM127.167 23.5703C127.167 23.9631 127.49 24.2852 127.893 24.2852C128.291 24.2852 128.618 23.9631 128.618 23.5703C128.618 23.1775 128.291 22.8555 127.893 22.8555C127.49 22.8555 127.167 23.1775 127.167 23.5703Z" fill="#9D9D9D"/>
</svg>
