<svg width="142" height="30" viewBox="0 0 142 30" fill="none" xmlns="http://www.w3.org/2000/svg">
<path d="M50.6185 17.2806L49.7795 19.6528H49.7096C49.5697 19.1179 49.3133 18.3039 48.8938 17.3272L44.3957 6.0479H39.9907V24.0249H42.904V12.9317C42.904 12.234 42.904 11.4433 42.8807 10.4666C42.8574 9.97819 42.8108 9.60609 42.7875 9.32702H42.8574C42.9973 10.0247 43.1604 10.5363 43.2769 10.8619L48.6841 23.9784H50.735L56.0955 10.7456C56.2121 10.4433 56.3286 9.83866 56.4451 9.32702H56.5151C56.4451 10.6526 56.3985 11.8387 56.3752 12.5596V23.9552H59.475V6.00138H55.2332L50.6185 17.2806ZM62.4116 11.0712H65.4415V23.9552H62.4116V11.0712ZM63.9498 5.62929C63.4371 5.62929 63.0176 5.81533 62.668 6.14092C62.3184 6.46651 62.1319 6.88512 62.1319 7.39676C62.1319 7.88514 62.3184 8.30375 62.668 8.62933C63.0176 8.95492 63.4371 9.11771 63.9498 9.11771C64.4626 9.11771 64.9054 8.93166 65.2317 8.62933C65.5813 8.30375 65.7678 7.88514 65.7678 7.39676C65.7678 6.90838 65.5813 6.48976 65.2317 6.14092C64.9287 5.81533 64.4859 5.62929 63.9498 5.62929ZM76.1858 10.955C75.6264 10.8387 75.0438 10.7689 74.4844 10.7689C73.1093 10.7689 71.8508 11.0712 70.802 11.6759C69.7532 12.2806 68.9141 13.1178 68.3781 14.1643C67.8187 15.2341 67.5391 16.4667 67.5391 17.8853C67.5391 19.1179 67.8187 20.2109 68.3548 21.2109C68.8908 22.1877 69.6366 22.9784 70.6388 23.5133C71.5944 24.0482 72.7131 24.3273 73.9717 24.3273C75.4167 24.3273 76.6519 24.0249 77.6308 23.4668L77.6541 23.4435V20.6528L77.5376 20.7458C77.0947 21.0714 76.582 21.3505 76.0693 21.5133C75.5332 21.6993 75.0438 21.7923 74.6243 21.7923C73.4123 21.7923 72.4567 21.4435 71.7808 20.676C71.0817 19.9318 70.7321 18.9086 70.7321 17.6295C70.7321 16.3039 71.0817 15.2573 71.8042 14.4899C72.5267 13.7224 73.4822 13.3271 74.6476 13.3271C75.6264 13.3271 76.6286 13.6527 77.5376 14.3038L77.6541 14.3969V11.4433L77.6308 11.4201C77.2346 11.2573 76.7918 11.0712 76.1858 10.955ZM86.1843 10.8619C85.4385 10.8619 84.7393 11.0945 84.1333 11.5829C83.6206 12.0015 83.271 12.6061 82.968 13.3271H82.9447V11.0712H79.9148V23.9552H82.9447V17.3737C82.9447 16.2574 83.1778 15.3271 83.6905 14.6527C84.2032 13.955 84.8558 13.6062 85.6482 13.6062C85.9279 13.6062 86.2076 13.6759 86.5572 13.7224C86.8835 13.8155 87.1166 13.9085 87.2797 14.0248L87.3962 14.1178V11.0945L87.3263 11.0712C87.1166 10.9317 86.697 10.8619 86.1843 10.8619ZM94.4348 10.7922C92.3139 10.7922 90.6125 11.4201 89.4239 12.6527C88.212 13.8852 87.6293 15.5829 87.6293 17.7225C87.6293 19.7225 88.2353 21.3505 89.4006 22.5365C90.5659 23.6994 92.1508 24.304 94.1318 24.304C96.2061 24.304 97.8609 23.6761 99.0495 22.4203C100.261 21.1644 100.844 19.49 100.844 17.4202C100.844 15.3736 100.285 13.7457 99.1427 12.5596C98.0473 11.3736 96.4392 10.7922 94.4348 10.7922ZM96.8587 20.6993C96.2993 21.4202 95.4137 21.7691 94.3183 21.7691C93.2229 21.7691 92.3372 21.4202 91.7079 20.6528C91.0787 19.9318 90.7757 18.8853 90.7757 17.5597C90.7757 16.1876 91.102 15.1411 91.7079 14.3969C92.3372 13.6527 93.1996 13.2806 94.295 13.2806C95.3671 13.2806 96.2061 13.6294 96.8121 14.3504C97.418 15.0713 97.7443 16.1178 97.7443 17.4899C97.6977 18.8853 97.4414 19.9784 96.8587 20.6993ZM107.603 16.4202C106.647 16.0248 106.041 15.7225 105.762 15.4667C105.529 15.2341 105.412 14.9085 105.412 14.4899C105.412 14.1411 105.552 13.7922 105.902 13.5596C106.251 13.3271 106.647 13.2108 107.23 13.2108C107.743 13.2108 108.279 13.3038 108.792 13.4434C109.304 13.5829 109.771 13.7922 110.143 14.0713L110.26 14.1643V11.3271L110.19 11.3038C109.84 11.1643 109.374 11.0247 108.815 10.9084C108.256 10.8154 107.743 10.7689 107.323 10.7689C105.878 10.7689 104.69 11.1177 103.757 11.8852C102.825 12.6061 102.382 13.5829 102.382 14.7225C102.382 15.3271 102.476 15.862 102.685 16.3039C102.895 16.7457 103.198 17.1644 103.618 17.5132C104.037 17.8388 104.643 18.2109 105.482 18.5597C106.181 18.8621 106.717 19.0946 107.044 19.2807C107.37 19.4667 107.58 19.676 107.743 19.8388C107.859 20.0249 107.929 20.2574 107.929 20.5598C107.929 21.4202 107.277 21.8389 105.948 21.8389C105.436 21.8389 104.899 21.7458 104.27 21.5365C103.641 21.3272 103.058 21.0249 102.569 20.676L102.452 20.583V23.5366L102.522 23.5598C102.965 23.7691 103.501 23.9087 104.154 24.0715C104.806 24.1877 105.389 24.2808 105.902 24.2808C107.463 24.2808 108.745 23.9319 109.654 23.1645C110.586 22.4203 111.076 21.4668 111.076 20.2342C111.076 19.3737 110.843 18.6062 110.33 18.0248C109.654 17.4667 108.815 16.8853 107.603 16.4202ZM119.07 10.7922C116.949 10.7922 115.248 11.4201 114.059 12.6527C112.87 13.8852 112.264 15.5829 112.264 17.7225C112.264 19.7225 112.87 21.3505 114.036 22.5365C115.201 23.6994 116.786 24.304 118.767 24.304C120.841 24.304 122.496 23.6761 123.685 22.4203C124.896 21.1644 125.479 19.49 125.479 17.4202C125.479 15.3736 124.92 13.7457 123.778 12.5596C122.682 11.3736 121.074 10.7922 119.07 10.7922ZM121.47 20.6993C120.911 21.4202 120.025 21.7691 118.93 21.7691C117.811 21.7691 116.949 21.4202 116.32 20.6528C115.69 19.9318 115.387 18.8853 115.387 17.5597C115.387 16.1876 115.714 15.1411 116.32 14.3969C116.949 13.6527 117.811 13.2806 118.907 13.2806C119.955 13.2806 120.818 13.6294 121.424 14.3504C122.03 15.0713 122.356 16.1178 122.356 17.4899C122.356 18.8853 122.053 19.9784 121.47 20.6993ZM141.677 13.5596V11.0712H138.624V7.25722L138.531 7.28048L135.641 8.14095L135.571 8.16421V11.0712H131.003V9.4433C131.003 8.6991 131.189 8.1177 131.516 7.7456C131.842 7.3735 132.331 7.18745 132.937 7.18745C133.357 7.18745 133.8 7.28048 134.289 7.48978L134.406 7.55955V4.9316L134.336 4.90834C133.916 4.76881 133.357 4.67578 132.634 4.67578C131.725 4.67578 130.933 4.88509 130.21 5.23393C129.488 5.62929 128.952 6.16418 128.556 6.88512C128.159 7.58281 127.95 8.37352 127.95 9.28051V11.0712H125.829V13.5364H127.95V23.9552H131.003V13.5596H135.571V20.1877C135.571 22.9086 136.853 24.2808 139.416 24.2808C139.836 24.2808 140.279 24.211 140.698 24.1412C141.141 24.0482 141.467 23.9319 141.654 23.8389L141.677 23.8156V21.3272L141.561 21.4202C141.374 21.5365 141.211 21.6296 140.931 21.6993C140.698 21.7691 140.489 21.7923 140.325 21.7923C139.719 21.7923 139.3 21.6528 138.997 21.304C138.717 20.9784 138.577 20.4435 138.577 19.6528V13.5596H141.677Z" fill="#737373"/>
<path d="M0.929688 0H15.2166V14.2561H0.929688V0Z" fill="#9D9D9D"/>
<path d="M16.7085 0H30.9954V14.2561H16.7085V0Z" fill="#9D9D9D"/>
<path d="M0.929688 15.7422H15.2166V29.9982H0.929688V15.7422Z" fill="#9D9D9D"/>
<path d="M16.7085 15.7422H30.9954V29.9982H16.7085V15.7422Z" fill="#9D9D9D"/>
</svg>
