<svg width="116" height="30" viewBox="0 0 116 30" fill="none" xmlns="http://www.w3.org/2000/svg">
<path fill-rule="evenodd" clip-rule="evenodd" d="M40.658 3.72923H43.4834V4.69426C43.7869 4.42923 44.7662 3.49155 46.5752 3.49155C48.7038 3.49155 50.3955 5.06347 50.3955 7.53204V13.9363H47.4099V8.32386C47.4099 6.94925 46.7405 6.13334 45.5261 6.13334C44.3482 6.13334 43.641 6.90236 43.641 8.32386V13.9363H40.658V3.72923ZM72.0279 8.83242C72.0279 7.42134 73.0809 6.26227 74.546 6.26227C76.0124 6.26227 77.0667 7.42134 77.0667 8.83242C77.0667 10.2435 76.0124 11.4032 74.546 11.4032C73.0809 11.4032 72.0279 10.2435 72.0279 8.83242ZM69.0821 8.83242C69.0821 11.7763 71.4399 14.1674 74.5265 14.1674C77.6143 14.1674 79.9722 11.7763 79.9722 8.83242C79.9722 5.88849 77.6143 3.49155 74.5265 3.49155C71.4399 3.49221 69.0821 5.88849 69.0821 8.83242ZM31.0455 8.83307C31.0455 7.42199 32.0997 6.26292 33.5648 6.26292C35.0306 6.26292 36.0855 7.42199 36.0855 8.83307C36.0855 10.2441 35.0313 11.4039 33.5648 11.4039C32.0997 11.4039 31.0455 10.2441 31.0455 8.83307ZM28.0996 8.83372C28.0996 11.7776 30.4601 14.1687 33.5453 14.1687C36.6331 14.1687 38.9917 11.7783 38.9917 8.83372C38.9917 5.8898 36.6325 3.4922 33.5453 3.4922C30.4594 3.49286 28.0996 5.89045 28.0996 8.83372ZM94.447 3.72923H97.4716V13.9363H94.447V3.72923ZM94.447 0.000650809H97.4716V2.59685H94.447V0.000650809ZM99.8041 0.000650809H102.829V13.9369H99.8041V0.000650809ZM89.6205 8.82656C89.6205 10.2663 88.5181 11.3843 87.0718 11.3843C85.6119 11.3843 84.5141 10.2695 84.5141 8.83372C84.5141 7.38032 85.6256 6.27855 87.0757 6.27855C88.5331 6.27855 89.6205 7.39074 89.6205 8.82656ZM84.5896 13.9369L84.6215 13.151C84.8325 13.3111 85.7676 14.1694 87.7263 14.1694C90.2977 14.1694 92.6862 11.8649 92.6862 8.83372C92.6862 5.79798 90.4455 3.4922 87.7595 3.4922C85.707 3.4922 84.7667 4.43314 84.6222 4.53798V0H81.7212V13.9356H84.5896V13.9369Z" fill="#6F6F6F"/>
<path fill-rule="evenodd" clip-rule="evenodd" d="M10.5073 13.9363L15.2653 7.97939L11.0542 3.72858H15.2341L17.101 5.65343L20.5372 1.2307H24.0411L19.0089 7.56981L20.967 9.53633L25.4913 3.72858H29.0036L22.8827 11.4625L30.6557 19.2778H26.4172L21.0086 13.7748L18.135 17.4988H14.6233L19.1111 11.8792L17.1498 9.89382L14.0053 13.9363H10.5073ZM0.634277 0H9.81247V2.59685H3.75597V5.48542H9.54028V8.00609H3.75597V11.3342H9.81247V13.9363H0.634277V0ZM52.7829 0H57.7175L60.0467 10.1719H60.1522L62.5381 0H67.3333V13.9363H64.3978V3.41341H64.2643L61.6785 13.9363H58.381L55.8538 3.41341H55.7197V13.9363H52.7829V0Z" fill="#6F6F6F"/>
<path fill-rule="evenodd" clip-rule="evenodd" d="M60.8421 20.979C60.8571 20.7966 60.7191 20.6423 60.5205 20.5199C60.0002 20.1982 58.9127 19.999 58.3306 19.999C55.177 19.999 54.4112 23.1076 54.4112 25.7566C54.4112 27.7778 55.2675 29.0033 57.3812 29.0033C58.4999 29.0033 59.4337 28.5742 60.3837 28.0226L60.7197 27.824L60.8734 27.9614L60.6735 28.5585C59.4643 29.3562 58.0695 29.9983 56.5998 29.9983C53.8134 29.9983 52.2988 28.7122 52.2988 25.8783C52.2988 22.2194 55.2076 19.0951 58.9284 19.0951C59.8465 19.0951 60.9952 19.295 61.8827 19.7548C61.6385 20.6273 61.393 21.4693 61.3012 22.3262H60.7646L60.8421 20.979ZM68.3442 27.533C68.2511 27.8553 68.2211 28.1906 68.2211 28.5436C68.2211 28.666 68.2986 28.7435 68.4054 28.7435C68.5897 28.7435 68.9882 28.513 69.3405 28.2838L69.5847 28.1307L69.7221 28.5286C69.0032 29.0189 67.6403 29.9989 66.8745 29.9989C66.6903 29.9989 66.4155 29.8303 66.4155 29.3399C66.4155 28.7734 66.812 27.3487 67.0744 26.3993C67.165 26.0776 67.5322 24.8222 67.5322 24.4087C67.5322 24.1788 67.5185 23.9047 67.1949 23.9047C66.812 23.9047 65.7715 24.5011 64.6996 26.5523C64.3168 27.2881 63.9033 28.8652 63.8427 29.6759C63.4448 29.6909 62.5267 29.8296 62.2187 29.9377L62.0676 29.7678C62.3268 29.3393 62.9402 26.4449 63.1095 25.5723C63.4299 23.919 63.7672 22.082 63.9821 20.6117C64.0582 20.0758 64.1045 19.7548 63.5074 19.7548H62.8165L62.9246 19.3263C63.9508 19.172 65.0369 19.004 65.9551 18.6211L66.1088 18.7591C66.0326 19.0802 65.9258 19.4018 65.8496 19.7548L64.5167 25.8783L64.5486 25.9089C64.8995 25.3275 65.4042 24.7154 65.9258 24.1638C66.7209 23.3062 67.9164 22.5561 68.7883 22.5561C69.0781 22.5561 69.3998 22.7247 69.3998 23.2294C69.3998 23.8884 69.1087 24.6229 68.9264 25.3275L68.3442 27.533ZM72.554 26.3836L72.7689 25.4955C72.9838 24.6535 73.4266 23.2913 74.4984 23.2913C74.9588 23.2913 75.203 23.6429 75.203 24.0714C75.203 25.22 74.1624 25.9239 73.1817 26.2L72.554 26.3836ZM70.6721 28.0851C70.6721 29.325 71.2992 29.9983 72.5696 29.9983C73.9026 29.9983 75.0512 29.1251 76.1686 28.4198L76.0163 27.992C75.4185 28.3892 74.3161 29.0183 73.5959 29.0183C72.7995 29.0183 72.4166 28.5585 72.4166 27.7928C72.4166 27.4717 72.4472 27.1188 72.4941 26.7815C73.4735 26.5673 74.3473 26.3368 75.0057 26.0157C75.9225 25.5716 76.6427 24.9745 76.6427 23.8421C76.6427 22.9989 76.0006 22.5554 75.1893 22.5554C74.8357 22.5554 74.3916 22.6629 74.0699 22.7853C73.6109 22.9689 73.045 23.2906 72.6621 23.5511C71.6827 24.2244 71.3904 24.8827 71.0544 25.9708C70.887 26.5217 70.6721 27.518 70.6721 28.0851ZM79.9649 26.353L79.9968 26.3836C80.5171 25.1588 82.7226 22.5561 84.1304 22.5561C84.5895 22.5561 84.7282 22.9077 84.7282 23.3219C84.7282 23.6279 84.6058 24.1495 84.4371 24.7303L83.9781 26.353L84.0087 26.3836C84.3759 25.5417 84.9268 24.8222 85.5715 24.1488C86.1517 23.5361 87.469 22.5561 88.3428 22.5561C88.7244 22.5561 88.9074 22.8934 88.9074 23.245C88.9074 23.5973 88.8475 23.9808 88.755 24.3331L87.9893 27.1494C87.8369 27.7166 87.6839 28.3443 87.6839 28.5436C87.6839 28.666 87.7587 28.7435 87.8668 28.7435C88.0498 28.7435 88.434 28.498 88.7863 28.2531L89.1535 27.9927L89.3365 28.3762C88.3559 29.2325 87.1004 29.9989 86.4877 29.9989C86.1504 29.9989 85.8762 29.8303 85.8762 29.3399C85.8762 28.7734 86.3965 26.7359 86.5033 26.3993C86.6114 26.0776 87.0249 24.6535 87.0249 24.3331C87.0249 24.1794 86.9331 24.072 86.7488 24.072C86.2897 24.072 85.5852 24.8078 85.3104 25.1139C84.7316 25.7589 84.2794 26.5071 83.9774 27.3194C83.7013 28.0545 83.5021 28.8496 83.4558 29.6766C83.0899 29.6916 82.1711 29.8303 81.8637 29.9384L81.7114 29.7684C82.033 28.834 82.369 27.5642 82.5839 26.6754C82.7363 26.0327 82.9987 25.0833 82.9987 24.4699C82.9987 24.2556 82.9069 24.072 82.737 24.072C82.4941 24.072 82.1861 24.1339 81.8494 24.4699C81.1754 25.1445 80.2723 26.2769 79.7982 27.9015C79.6301 28.4837 79.5022 29.0768 79.4154 29.6766C79.0468 29.6916 78.1293 29.8303 77.8232 29.9384L77.6709 29.7684C77.9912 28.834 78.3299 27.5642 78.5447 26.6754C78.7277 25.9089 78.9413 24.6691 78.9413 24.3637C78.9413 24.1182 78.8495 24.072 78.7583 24.072C78.6359 24.072 78.4672 24.1182 78.115 24.3787L77.5478 24.8078L77.3342 24.4093L78.6203 23.3674C79.2636 22.8472 79.9363 22.5567 80.2886 22.5567C80.5796 22.5567 80.6728 22.7866 80.6728 23.0152C80.6728 23.3062 80.6102 23.598 80.3817 24.5936L79.9649 26.353ZM93.0254 27.1494C92.8717 27.7166 92.7174 28.3443 92.7174 28.5436C92.7174 28.666 92.7936 28.7435 92.9017 28.7435C93.0846 28.7435 93.4844 28.513 93.8354 28.2838L94.2489 28.0233L94.4319 28.4518C93.5606 29.0482 92.412 29.9989 91.432 29.9989C91.249 29.9989 90.9729 29.8303 90.9729 29.3399C90.9729 29.0801 91.0185 28.7278 91.0647 28.5436L91.9679 24.8528C92.0148 24.6841 92.061 24.4861 92.0903 24.2862C92.0903 24.1638 92.0753 24.072 91.9236 24.072C91.7543 24.072 91.0497 24.4699 90.8804 24.5936L90.5444 24.8384L90.3445 24.4399L91.3096 23.7204C92.6256 22.7716 93.2845 22.5574 93.6062 22.5574C93.8048 22.5574 93.9878 22.756 93.9878 23.1239C93.9878 23.4762 93.9422 23.7829 93.8517 24.1501L93.0254 27.1494ZM94.7243 19.9534C94.7243 20.5811 94.3401 21.1007 93.6824 21.1007C93.1471 21.1007 92.8391 20.7647 92.8391 20.2282C92.8391 19.646 93.2539 19.0951 93.881 19.0951C94.357 19.0951 94.7243 19.4787 94.7243 19.9534ZM101.722 22.924C101.446 23.6279 101.324 24.3637 101.185 25.0826H100.68L100.772 24.225C100.787 24.1332 100.772 24.0557 100.711 24.0108C100.435 23.7966 99.8835 23.5061 99.3339 23.5061C98.5212 23.5061 98.0771 24.0414 97.8167 24.731C97.5256 25.4811 97.2827 26.7516 97.2827 27.5785C97.2827 28.3293 97.6643 28.9727 98.4906 28.9727C99.4407 28.9727 100.283 28.4062 101.033 27.9015L101.185 28.3606C100.13 29.0951 98.8422 29.9989 97.5106 29.9989C96.1777 29.9989 95.5343 29.0951 95.5343 27.8559C95.5343 26.9358 95.8879 25.1901 96.4694 24.4861C96.9897 23.8578 97.7555 23.398 98.46 23.0152C98.9347 22.7553 99.3489 22.5567 99.9453 22.5567C100.633 22.5561 101.078 22.6941 101.722 22.924ZM104.507 28.7428C104.308 28.7428 104.232 28.3892 104.232 28.16C104.232 27.6254 104.461 26.6591 104.599 26.1232C104.799 25.3268 104.997 24.4692 105.472 23.7809C105.685 23.4742 106.07 23.3518 106.437 23.3518C106.804 23.3518 107.294 23.5205 107.615 23.6898C107.523 24.3474 107.356 24.9452 107.172 25.3737C106.544 26.8277 105.992 27.5173 105.334 28.2063C105.028 28.5279 104.722 28.7428 104.507 28.7428ZM108.643 22.954C108.152 22.7397 107.677 22.5567 107.127 22.5567C106.835 22.5567 106.391 22.5867 106.101 22.7098C105.488 22.9696 104.018 24.2101 103.758 24.5161C103.068 25.3275 102.518 27.7016 102.518 28.8184C102.518 29.3243 102.732 29.9983 103.329 29.9983C104.891 29.9983 106.59 27.5023 107.248 26.2619L107.28 26.2925L106.743 28.4674C106.682 28.7129 106.637 28.9883 106.637 29.3399C106.637 29.8303 106.913 29.9989 107.096 29.9989C107.923 29.9989 109.025 29.1876 109.791 28.4837L109.608 28.0233L109.301 28.2694C109.041 28.4837 108.644 28.7135 108.458 28.7135C108.337 28.7135 108.244 28.6204 108.244 28.4062C108.244 28.1913 108.338 27.8865 108.398 27.6098L109.086 24.3338C109.164 23.9965 109.256 23.6435 109.347 23.3837L109.577 22.7254L109.332 22.5411L108.643 22.954ZM112.947 20.6117C113.07 20.0901 113.07 19.7548 112.472 19.7548H111.782L111.889 19.3263C112.915 19.172 114.003 19.004 114.922 18.6211L115.075 18.7591C114.998 19.0802 114.892 19.4018 114.814 19.7548L113.176 27.1344C113.1 27.5024 112.991 28.0226 112.991 28.5436C112.991 28.666 113.069 28.7435 113.176 28.7435C113.359 28.7435 113.759 28.513 113.987 28.345L114.446 27.9927L114.66 28.4062C113.482 29.2631 112.532 29.9989 111.644 29.9989C111.46 29.9989 111.185 29.8303 111.185 29.3399C111.185 28.5286 111.308 28.0233 111.429 27.503L112.947 20.6117Z" fill="#6B7279"/>
</svg>
