<svg width="158" height="26" viewBox="0 0 158 26" fill="none" xmlns="http://www.w3.org/2000/svg">
<path d="M15.8728 13.35C17.1228 13.45 18.1728 13.95 19.0728 14.9C19.9728 15.85 20.4228 17.15 20.4228 18.8C20.4228 20.8 19.7728 22.45 18.4228 23.65C17.0728 24.85 15.1728 25.45 12.6228 25.45H0.322754V1.75H12.5728C14.7228 1.75 16.4728 2.35 17.7728 3.5C19.0728 4.7 19.7228 6.25 19.7228 8.2C19.7228 9.7 19.3228 10.85 18.4728 11.75C17.6228 12.65 16.7728 13.1 15.8228 13.2L15.8728 13.35ZM6.17275 11.55H11.2728C12.1228 11.55 12.8228 11.3 13.3728 10.8C13.8728 10.3 14.1728 9.7 14.1728 8.85C14.1728 8.1 13.9228 7.55 13.4228 7.1C12.9228 6.65 12.2728 6.45 11.5228 6.45H6.17275V11.55ZM11.5728 20.75C12.4728 20.75 13.2228 20.5 13.7228 20.05C14.2228 19.6 14.4728 18.95 14.4728 18.1C14.4728 17.3 14.2228 16.7 13.6728 16.25C13.1728 15.8 12.4728 15.55 11.6728 15.55H6.17275V20.75H11.5728ZM40.6728 25.45H35.0228V23.75C33.6228 25.25 31.7728 26 29.5728 26C27.4728 26 25.8228 25.3 24.5728 23.95C23.3228 22.6 22.6728 20.8 22.6728 18.6V7.7H28.2728V17.4C28.2728 18.45 28.5728 19.3 29.1228 19.95C29.6728 20.6 30.4228 20.9 31.3228 20.9C32.4728 20.9 33.3728 20.5 34.0228 19.7C34.6728 18.9 34.9728 17.65 34.9728 15.95V7.7H40.6228L40.6728 25.45ZM58.1228 25.45H43.1228V24.4L50.1728 12.2H43.3228V7.7H58.0228V8.75L50.9728 20.95H58.0728V25.45H58.1228ZM75.5228 25.45H60.5728V24.4L67.5728 12.2H60.7228V7.7H75.4228V8.75L68.3728 20.95H75.4728L75.5228 25.45ZM83.9228 11.9H94.1728V17H83.9228V25.5H78.0728V1.75H95.0728V6.85H83.9228V11.9ZM135.623 18.05H122.623C122.973 20.25 124.623 21.5 127.073 21.5C129.023 21.5 130.973 20.75 132.423 19.6L134.573 23.35C132.573 25.05 130.023 26 127.073 26C121.123 26 117.073 22.4 117.073 16.6C117.073 13.85 117.973 11.6 119.773 9.85C121.573 8.1 123.823 7.2 126.473 7.2C129.023 7.2 131.173 8.05 132.923 9.8C134.673 11.55 135.573 13.8 135.623 16.65V18.05ZM124.173 12.5C123.473 13 122.973 13.7 122.723 14.55H130.023C129.773 13.65 129.323 12.95 128.673 12.45C128.023 12 127.273 11.75 126.473 11.75C125.623 11.75 124.873 12 124.173 12.5ZM114.923 18.05H101.923C102.273 20.25 103.923 21.5 106.373 21.5C108.323 21.5 110.273 20.75 111.723 19.6L113.873 23.35C111.873 25.05 109.323 26 106.373 26C100.423 26 96.3728 22.4 96.3728 16.6C96.3728 13.85 97.2728 11.6 99.0728 9.85C100.873 8.1 103.123 7.2 105.773 7.2C108.323 7.2 110.473 8.05 112.223 9.8C113.973 11.55 114.873 13.8 114.923 16.65V18.05ZM103.473 12.5C102.773 13 102.273 13.7 102.023 14.55H109.323C109.073 13.65 108.623 12.95 107.973 12.45C107.323 12 106.573 11.75 105.773 11.75C104.923 11.75 104.173 12 103.473 12.5ZM157.473 25.45H151.823V24.05C150.373 25.35 148.573 26 146.323 26C143.923 26 141.873 25.1 140.173 23.35C138.473 21.6 137.623 19.35 137.623 16.6C137.623 13.85 138.473 11.6 140.173 9.85C141.873 8.1 143.923 7.2 146.323 7.2C148.573 7.2 150.423 7.85 151.823 9.15V0H157.473V25.45ZM150.573 19.9C151.423 19.05 151.873 17.95 151.873 16.6C151.873 15.3 151.423 14.2 150.573 13.3C149.723 12.45 148.673 12 147.523 12C146.273 12 145.273 12.45 144.473 13.3C143.673 14.15 143.273 15.25 143.273 16.6C143.273 17.95 143.673 19.1 144.473 19.95C145.273 20.8 146.273 21.2 147.523 21.2C148.673 21.2 149.673 20.75 150.573 19.9Z" fill="#6F6F6F"/>
</svg>
