<svg width="106" height="30" viewBox="0 0 106 30" fill="none" xmlns="http://www.w3.org/2000/svg">
<path d="M11.8931 4.96875V13.4263H4.18691V4.96875H0.52832V25.1578H4.18691V16.9749H11.8931V25.1578H15.5517V4.96875H11.8931Z" fill="#6F6F6F"/>
<path d="M27.2606 18.6317C27.2606 19.4408 26.9417 20.2168 26.3741 20.7889C25.8065 21.361 25.0366 21.6824 24.2339 21.6824C23.4312 21.6824 22.6613 21.361 22.0937 20.7889C21.5261 20.2168 21.2072 19.4408 21.2072 18.6317V9.98438H17.7368V18.6317C17.7368 20.3668 18.4207 22.0309 19.6379 23.2578C20.8552 24.4848 22.5062 25.1741 24.2276 25.1741C25.9491 25.1741 27.6001 24.4848 28.8173 23.2578C30.0346 22.0309 30.7184 20.3668 30.7184 18.6317V9.98438H27.2606V18.6317Z" fill="#6F6F6F"/>
<path d="M52.9733 10.8751C52.9733 9.10268 54.1367 8.54077 55.4112 8.54077C56.4383 8.54077 57.7953 9.32853 58.6826 10.2843L60.9555 7.58498C59.8209 6.03837 57.5192 4.96875 55.6353 4.96875C51.8709 4.96875 49.148 7.1911 49.148 10.8751C49.148 17.7102 57.4368 15.5421 57.4368 19.3671C57.4368 20.5469 56.3003 21.5894 54.9989 21.5894C52.9464 21.5894 52.2814 20.5776 51.3385 19.508L48.8164 22.1513C50.4297 24.1478 52.4194 25.1614 54.8035 25.1614C58.3796 25.1614 61.2567 22.912 61.2567 19.396C61.2567 11.8074 52.9679 14.1653 52.9679 10.8751" fill="#6F6F6F"/>
<path d="M104.251 21.9303C102.2 21.9303 101.617 21.036 101.617 19.6664V13.6046H104.805V10.5331H101.617V6.48047L98.0986 8.07225V20.4198C98.0986 23.5781 100.26 25.1699 103.225 25.1699C103.69 25.1784 104.155 25.1409 104.613 25.0579L105.471 21.8725C105.084 21.8996 104.64 21.9267 104.251 21.9267" fill="#6F6F6F"/>
<path d="M40.4703 10.0817C38.7512 10.0817 37.552 10.584 36.3923 11.7313V5.08594H32.9165V17.4028C32.9165 22.0137 36.2238 25.172 39.9397 25.172C44.0626 25.172 47.6889 21.9577 47.6889 17.6287C47.6889 13.3538 44.3512 10.0835 40.4703 10.0835V10.0817ZM40.4488 21.647C39.6688 21.647 38.9064 21.4138 38.2578 20.9771C37.6093 20.5403 37.1039 19.9195 36.8054 19.1932C36.5069 18.4668 36.4288 17.6676 36.581 16.8966C36.7331 16.1255 37.1087 15.4172 37.6602 14.8613C38.2118 14.3054 38.9144 13.9268 39.6794 13.7735C40.4444 13.6201 41.2373 13.6988 41.9579 13.9997C42.6785 14.3005 43.2944 14.81 43.7278 15.4637C44.1611 16.1173 44.3924 16.8859 44.3924 17.672C44.3924 18.7262 43.9769 19.7373 43.2373 20.4827C42.4978 21.2282 41.4947 21.647 40.4488 21.647Z" fill="#6F6F6F"/>
<path d="M78.2108 17.4496C78.2108 13.1133 74.5917 9.90625 70.4617 9.90625C66.7457 9.90625 63.4385 13.0645 63.4385 17.6754V29.9995H66.9142V23.3451C68.0722 24.4906 69.2732 24.9947 70.9905 24.9947C74.8713 24.9947 78.209 21.7263 78.209 17.4496H78.2108ZM74.9197 17.4062C74.9197 18.1924 74.6884 18.9609 74.2551 19.6146C73.8218 20.2683 73.2059 20.7777 72.4853 21.0786C71.7647 21.3794 70.9717 21.4582 70.2068 21.3048C69.4418 21.1514 68.7391 20.7728 68.1876 20.2169C67.6361 19.661 67.2605 18.9528 67.1083 18.1817C66.9561 17.4106 67.0342 16.6114 67.3327 15.8851C67.6312 15.1588 68.1367 14.538 68.7852 14.1012C69.4337 13.6644 70.1962 13.4313 70.9761 13.4313C72.022 13.4313 73.0251 13.8501 73.7647 14.5955C74.5042 15.341 74.9197 16.352 74.9197 17.4062Z" fill="#6F6F6F"/>
<path d="M89.4383 9.73136V6.21174C89.8997 5.99441 90.2905 5.64943 90.565 5.21697C90.8395 4.78451 90.9865 4.28235 90.9888 3.76896V3.68766C90.9888 2.96887 90.7055 2.27952 90.2013 1.77127C89.697 1.26301 89.0131 0.977472 88.3 0.977472H88.2193C87.5062 0.977472 86.8223 1.26301 86.3181 1.77127C85.8138 2.27952 85.5305 2.96887 85.5305 3.68766V3.76896C85.5329 4.28235 85.6799 4.78451 85.9544 5.21697C86.2289 5.64943 86.6196 5.99441 87.0811 6.21174V9.73136C85.7548 9.93588 84.5056 10.49 83.4601 11.3376L73.8844 3.81955C73.9521 3.57163 73.9883 3.31602 73.9919 3.05889C73.993 2.4549 73.8163 1.86415 73.4842 1.36138C73.1522 0.858601 72.6796 0.466385 72.1264 0.234338C71.5731 0.00229108 70.964 -0.0591622 70.3761 0.0577513C69.7882 0.174665 69.2479 0.464693 68.8236 0.89115C68.3992 1.31761 68.1099 1.86134 67.9921 2.45356C67.8744 3.04579 67.9336 3.6599 68.1622 4.21823C68.3907 4.77656 68.7785 5.25401 69.2763 5.59021C69.7741 5.9264 70.3597 6.10623 70.9589 6.10695C71.4829 6.10458 71.9971 5.96379 72.4503 5.69861L81.8809 13.0938C81.0335 14.3838 80.5914 15.9012 80.6122 17.4482C80.633 18.9952 81.1157 20.5 81.9974 21.7664L79.1293 24.6572C78.8974 24.5826 78.6558 24.543 78.4123 24.5398C77.9204 24.5402 77.4396 24.6875 77.0307 24.9632C76.6218 25.2389 76.3032 25.6306 76.1151 26.0888C75.927 26.5469 75.8779 27.051 75.974 27.5373C76.07 28.0236 76.3069 28.4703 76.6548 28.8209C77.0027 29.1715 77.4458 29.4104 77.9283 29.5072C78.4108 29.604 78.9109 29.5545 79.3654 29.3649C79.82 29.1753 80.2086 28.8542 80.4821 28.442C80.7556 28.0299 80.9018 27.5453 80.9022 27.0494C80.8991 26.804 80.8598 26.5605 80.7857 26.3267L83.6233 23.4666C84.5485 24.1843 85.6245 24.679 86.7687 24.9128C87.913 25.1467 89.0952 25.1135 90.2247 24.8157C91.3542 24.518 92.4012 23.9636 93.2854 23.1951C94.1695 22.4265 94.8675 21.4642 95.3257 20.3819C95.784 19.2995 95.9904 18.1258 95.9291 16.9506C95.8678 15.7754 95.5405 14.6299 94.9722 13.6019C94.404 12.5739 93.6098 11.6906 92.6506 11.0197C91.6914 10.3488 90.5926 9.90814 89.4383 9.73136ZM88.2624 21.3057C87.4862 21.3049 86.7276 21.0723 86.0825 20.6372C85.4375 20.202 84.9349 19.5839 84.6382 18.8609C84.3416 18.1379 84.2643 17.3426 84.416 16.5753C84.5677 15.808 84.9417 15.1033 85.4907 14.5502C86.0397 13.9971 86.739 13.6205 87.5003 13.4679C88.2616 13.3153 89.0507 13.3936 89.7678 13.6929C90.485 13.9923 91.098 14.4991 91.5294 15.1495C91.9608 15.7999 92.1913 16.5646 92.1916 17.347C92.1916 18.3964 91.778 19.4029 91.0418 20.1449C90.3056 20.887 89.3071 21.3038 88.2659 21.3038" fill="#9D9D9D"/>
</svg>
