<svg width="159" height="30" viewBox="0 0 159 30" fill="none" xmlns="http://www.w3.org/2000/svg">
<path d="M10.6131 1.50819C10.5926 1.34376 10.6225 1.17699 10.6986 1.02984C10.7748 0.882681 10.8937 0.762037 11.0398 0.683784C11.3992 0.620333 11.7643 0.59521 12.129 0.608838H14.6552C17.8029 0.608838 19.3568 2.66936 19.3568 6.79141C19.3568 10.2389 17.764 11.9617 14.5383 11.9617H11.4675C10.8849 11.9617 10.6121 11.7748 10.6121 11.4001L10.6131 1.50819ZM11.3126 12.6003C11.5064 12.5623 12.4008 12.6003 13.9157 12.6003C16.1955 12.7035 18.4652 12.24 20.522 11.2512C21.4222 10.8842 22.2052 10.2785 22.7865 9.49924C23.3678 8.72001 23.7254 7.79688 23.8206 6.82938C23.9039 5.79892 23.6878 4.76635 23.1984 3.85573C22.7089 2.9451 21.967 2.19518 21.0616 1.69606C19.0716 0.504043 16.7773 -0.0821229 14.4593 0.00926729C6.41609 0.0472401 2.02523 0.0472401 1.24779 0.0472401C1.05393 0.0842136 0.937012 0.15916 0.937012 0.347025C0.937012 0.534891 1.01496 0.608838 1.20882 0.608838C2.63352 0.592873 4.05519 0.743793 5.44479 1.05852C5.87248 1.20841 6.06634 1.58314 6.06634 2.21968L6.22223 20.5066C6.2499 20.7502 6.19633 20.9961 6.06983 21.2061C5.94333 21.4161 5.75099 21.5784 5.52273 21.6678C4.16609 21.9535 2.7886 22.1293 1.40368 22.1934C1.20982 22.1934 1.0929 22.2683 1.0929 22.4552C1.0929 22.6051 1.20982 22.68 1.40368 22.68H16.0532C16.325 22.68 16.4809 22.6051 16.4809 22.4172C16.4809 22.3053 16.3253 22.2304 16.0142 22.1924C14.6197 22.1128 13.2313 21.9499 11.8562 21.7047C11.0398 21.4799 10.6121 21.0682 10.6121 20.5056V13.2738C10.5858 13.0787 10.6271 12.8805 10.729 12.7122C10.9065 12.6133 11.1111 12.5741 11.3126 12.6003ZM29.9642 23.2406C31.516 23.3014 33.032 22.7649 34.2002 21.7417C35.3246 20.6895 36.0288 19.2649 36.1818 17.7326C36.2208 17.3958 36.1038 17.2459 35.871 17.2459C35.7151 17.2459 35.5992 17.3578 35.5602 17.6207C35.4426 19.1032 34.7614 20.4843 33.6566 21.4799C32.7426 22.2094 31.601 22.5939 30.4319 22.5661C27.6339 22.5661 26.2349 20.5426 26.2349 16.4955C26.2739 16.0088 26.3128 15.6341 26.3128 15.4462H35.7121C35.9839 15.4462 36.1008 15.2963 36.1008 14.9965C36.1641 13.1014 35.5588 11.2443 34.3911 9.75029C33.8605 9.07989 33.1793 8.54397 32.4029 8.18597C31.6265 7.82797 30.7766 7.65798 29.9223 7.68977C28.9015 7.69288 27.8942 7.92316 26.9735 8.36391C26.0528 8.80466 25.2417 9.44481 24.5991 10.2379C23.1555 11.8257 22.3646 13.9 22.3847 16.0458C22.3289 17.0296 22.4915 18.0135 22.8607 18.927C23.2299 19.8406 23.7966 20.6612 24.5201 21.33C26.0268 22.6344 27.9729 23.3174 29.9642 23.2406ZM29.8473 8.21539C31.8679 8.25237 32.8002 10.2389 32.7223 14.2111C32.7223 14.6228 32.5284 14.8107 32.1786 14.8107H26.9324C26.5047 14.8107 26.3108 14.6608 26.3108 14.324C26.2318 12.77 26.5528 11.2217 27.2432 9.82724C27.4745 9.33524 27.8438 8.92101 28.3061 8.63487C28.7683 8.34873 29.3038 8.20301 29.8473 8.21539ZM36.6425 8.66507C37.5154 8.64705 38.3844 8.78686 39.2076 9.07778C39.5184 9.26464 39.6743 9.71432 39.6743 10.3888L39.8681 20.6555C39.9066 20.9748 39.8299 21.2973 39.6519 21.5651C39.4738 21.8329 39.2061 22.0284 38.8968 22.1164C38.2438 22.2389 37.5793 22.2892 36.9153 22.2663C36.7214 22.2663 36.6045 22.3413 36.6045 22.4912C36.6045 22.6041 36.6824 22.678 36.8763 22.678H45.5801C45.7749 22.678 45.8908 22.6031 45.9298 22.4912C45.9298 22.3413 45.8132 22.2663 45.5801 22.2663C44.0651 22.2663 43.2877 21.9296 43.2877 21.2171L43.2487 17.4698C43.1758 11.4381 44.4189 8.40326 47.023 8.40326C48.461 8.40326 49.1605 9.26464 49.1605 11.0264V21.2191C49.1605 21.9306 48.422 22.2683 46.9061 22.2683C46.6729 22.2683 46.5564 22.3433 46.5564 22.4932C46.5564 22.6061 46.6733 22.68 46.9061 22.68H55.2222C55.455 22.68 55.5719 22.6051 55.5719 22.4932C55.5719 22.3813 55.456 22.3063 55.2222 22.2683C54.6396 22.1934 54.018 22.1184 53.3965 22.0055C52.8908 21.8936 52.658 21.6308 52.658 21.2191L52.8518 12.0387C52.8738 11.4495 52.7669 10.8626 52.5388 10.319C52.3106 9.77531 51.9666 9.28797 51.5308 8.89091C51.0946 8.46893 50.5761 8.14131 50.0078 7.92847C49.4394 7.71563 48.8333 7.62213 48.2272 7.65379C47.2666 7.61235 46.3094 7.79183 45.4292 8.17842C44.5224 8.80387 43.8304 9.69367 43.4476 10.7266H43.2917C43.2137 9.56543 43.1358 8.70304 43.0968 8.14145C43.0968 7.84166 42.9409 7.69177 42.5922 7.72874C39.9111 7.95358 37.9295 8.0665 36.6465 8.14145C36.4526 8.14145 36.3357 8.25436 36.3357 8.36628C36.3328 8.4074 36.339 8.44865 36.3538 8.4871C36.3686 8.52556 36.3917 8.56028 36.4215 8.5888C36.4512 8.61732 36.4869 8.63893 36.526 8.65211C36.565 8.6653 36.6065 8.66972 36.6474 8.66507H36.6425ZM55.1392 8.88991H56.897C57.4026 8.88991 57.6354 9.07778 57.6354 9.48948C57.6354 9.6014 57.5965 11.0634 57.5965 13.8733V19.1955C57.5684 19.7708 57.6689 20.3451 57.8907 20.8766C58.1124 21.4082 58.4499 21.8836 58.8785 22.2683C59.6882 22.8939 60.6933 23.2125 61.7155 23.1677C62.8296 23.2787 63.9466 22.9862 64.8633 22.3433C65.5628 21.7064 65.9125 20.5073 65.9125 18.7459C65.9125 18.4091 65.9125 17.8845 65.8735 17.135C65.8346 16.3855 65.8346 15.8609 65.8346 15.5611C65.8346 15.2993 65.7566 15.1494 65.6017 15.1494C65.4079 15.1494 65.2909 15.2993 65.2909 15.5611V18.2962C65.2909 20.9942 64.5135 22.3433 62.9206 22.3433C61.7155 22.3433 61.1329 21.294 61.1329 19.2335V8.85194H64.7084C65.1361 8.85194 65.3689 8.73902 65.3689 8.4772C65.3689 8.17742 65.175 8.02753 64.7473 8.02753H61.7105C61.3221 8.02753 61.1279 7.84033 61.1279 7.46593C61.1279 6.67949 61.1279 5.66722 61.089 4.35616C61.05 3.08207 61.05 2.18271 61.05 1.65809C61.05 1.39528 60.9331 1.24638 60.6613 1.24638C60.4284 1.24638 60.3115 1.39627 60.2725 1.65809C60.18 3.22521 59.6992 4.74473 58.8735 6.07992C58.5283 6.77502 57.9878 7.35435 57.3184 7.74695C56.6489 8.13956 55.8794 8.3284 55.1042 8.29034C54.8324 8.25337 54.6765 8.36528 54.6765 8.59012C54.6775 8.77799 54.8334 8.88991 55.1442 8.88991H55.1392ZM85.8372 12.974C85.8764 13.6434 86.0728 14.2942 86.4104 14.8736C86.7481 15.453 87.2176 15.9446 87.7808 16.3086V16.4215C86.8575 16.5806 86.0189 17.0579 85.4105 17.7706C85.0611 18.3302 84.8978 18.9861 84.9439 19.6442C84.9428 20.4563 85.1975 21.248 85.6717 21.9072C86.146 22.5664 86.8157 23.0595 87.586 23.3166V23.4295C86.2649 23.9911 85.5654 24.3289 85.4875 24.3658C85.216 24.4778 84.9811 24.6635 84.8095 24.9019C84.6379 25.1402 84.5363 25.4218 84.5162 25.7149C84.5162 26.8011 85.2547 27.7754 86.7706 28.6378C88.5169 29.5604 90.4688 30.0246 92.4435 29.9868C94.2403 30.087 96.0225 29.6147 97.5339 28.6378C98.1731 28.2215 98.6946 27.648 99.0484 26.9722C99.4022 26.2964 99.5765 25.541 99.5544 24.7785C99.59 24.0979 99.4723 23.4179 99.2099 22.7889C98.9475 22.1598 98.5472 21.5977 98.0385 21.1441C96.6735 20.1387 94.9856 19.6719 93.2979 19.8331C92.8702 19.8331 92.1707 19.8331 91.1225 19.908C90.345 19.945 89.6065 19.983 88.946 19.983C87.0424 19.983 86.109 19.5333 86.109 18.597C86.109 17.4728 86.8865 16.9112 88.4793 16.9112C89.0322 16.9299 89.5804 17.0182 90.1112 17.174C90.6591 17.3053 91.2189 17.3806 91.782 17.3988C93.3764 17.4631 94.959 17.1009 96.3667 16.3496C97.059 15.9685 97.6371 15.4098 98.0414 14.7309C98.4458 14.052 98.6617 13.2775 98.6671 12.4873C98.7437 10.9511 97.811 9.48981 95.8691 8.10347C95.6752 7.99055 95.5973 7.61582 95.5973 6.90433C95.5973 5.85508 95.8304 5.33046 96.2968 5.33046C96.3222 5.32861 96.3477 5.33215 96.3717 5.34085C96.3956 5.34955 96.4175 5.36322 96.4358 5.38096C96.4541 5.3987 96.4684 5.42011 96.4779 5.44378C96.4873 5.46745 96.4917 5.49286 96.4906 5.51832C96.4663 5.69463 96.4788 5.87407 96.5274 6.0453C96.576 6.21652 96.6595 6.37582 96.7728 6.51311C96.886 6.65041 97.0265 6.76272 97.1854 6.84296C97.3442 6.9232 97.518 6.96961 97.6958 6.97928C97.8667 6.99824 98.0396 6.97764 98.2013 6.91907C98.363 6.86051 98.509 6.76554 98.6281 6.64152C98.8553 6.38273 98.9798 6.04959 98.9778 5.70519C98.9778 4.80583 98.4722 4.35616 97.5399 4.35616C95.7911 4.35616 94.9747 5.51832 95.0536 7.80369C94.11 7.56614 93.1441 7.42782 92.1717 7.39098C90.536 7.36205 88.9469 7.93576 87.7069 9.00283C87.1183 9.48269 86.6452 10.0887 86.3224 10.7761C85.9997 11.4635 85.8356 12.2146 85.8422 12.974H85.8372ZM92.4475 7.80369C94.3128 7.80369 95.2455 9.45251 95.2455 12.7501C95.2455 15.5228 94.2739 16.9092 92.3306 16.9092C91.9266 16.9381 91.5212 16.8757 91.1446 16.7266C90.768 16.5774 90.4298 16.3455 90.1551 16.0478C89.4731 14.9514 89.1723 13.6604 89.2998 12.3754C89.3008 9.33959 90.349 7.80369 92.4475 7.80369ZM93.147 23.3166C96.3717 23.3915 98.0045 24.3279 98.0045 26.1266C98.0014 26.6821 97.8335 27.2242 97.5222 27.6844C97.211 28.1445 96.7702 28.502 96.2558 28.7117C94.9965 29.313 93.6089 29.5961 92.2147 29.5361C88.7958 29.4608 87.086 28.3743 87.0853 26.2765C87.0406 25.7857 87.1468 25.2931 87.3899 24.8644C87.633 24.4358 88.0013 24.0917 88.4454 23.8782C89.9598 23.3807 91.558 23.1894 93.147 23.3156V23.3166ZM107.447 16.1967C107.422 14.416 107.631 12.6398 108.068 10.9135C108.368 9.9072 109.052 9.05935 109.972 8.55315C110.254 8.38028 110.574 8.27749 110.904 8.25337C111.332 8.25337 111.565 8.36562 111.604 8.59012C111.643 8.6281 111.449 8.81496 111.021 9.11475C110.796 9.30733 110.619 9.54998 110.504 9.82328C110.389 10.0966 110.34 10.3929 110.361 10.6886C110.356 11.104 110.509 11.5058 110.788 11.8128C110.95 12.0173 111.157 12.1813 111.393 12.292C111.629 12.4026 111.888 12.4568 112.148 12.4504C112.423 12.4694 112.698 12.4307 112.956 12.3367C113.214 12.2428 113.45 12.0957 113.647 11.905C113.845 11.7142 114.001 11.4841 114.104 11.2295C114.207 10.9749 114.256 10.7014 114.247 10.4268C114.255 10.0483 114.183 9.67246 114.035 9.32377C113.888 8.97508 113.668 8.66141 113.392 8.40326C113.095 8.13493 112.742 7.93537 112.36 7.81878C111.977 7.70219 111.573 7.67145 111.177 7.72874C110.687 7.75285 110.207 7.88256 109.771 8.109C109.335 8.33543 108.954 8.65327 108.652 9.0408C108.184 9.72663 107.781 10.4542 107.448 11.2142H107.331C107.331 10.3898 107.292 9.45251 107.253 8.36628C107.253 7.95358 107.059 7.76671 106.709 7.80469C103.407 8.0665 101.463 8.17942 100.919 8.21639C100.687 8.21639 100.57 8.32831 100.57 8.51618C100.57 8.6291 100.686 8.74102 100.919 8.74102C101.739 8.71578 102.556 8.84284 103.329 9.11575C103.602 9.26564 103.756 9.75329 103.756 10.5397L103.873 20.7324C103.873 21.4439 103.718 21.8566 103.329 22.0065C102.546 22.1475 101.753 22.2227 100.958 22.2314C100.725 22.2314 100.609 22.3063 100.609 22.4562C100.609 22.6431 100.726 22.718 100.919 22.718H110.789C111.022 22.718 111.139 22.6431 111.139 22.4562C111.139 22.3063 111.023 22.2314 110.789 22.2314C108.458 22.2314 107.331 21.8566 107.331 21.0702L107.447 16.1967ZM115.568 11.9247C115.567 12.4908 115.775 13.0375 116.151 13.4606C116.333 13.6704 116.561 13.8365 116.817 13.9466C117.072 14.0568 117.349 14.1082 117.627 14.0972C117.887 14.1088 118.146 14.0647 118.388 13.9678C118.629 13.8709 118.847 13.7236 119.026 13.5356C119.206 13.361 119.347 13.1508 119.441 12.9185C119.534 12.6862 119.578 12.4369 119.57 12.1865C119.577 11.8195 119.473 11.4589 119.272 11.1516C119.071 10.8442 118.783 10.6043 118.444 10.4628C118.269 10.3829 118.086 10.32 117.899 10.2749C117.705 10.2379 117.627 10.162 117.627 10.0501C117.627 9.71299 118.016 9.30095 118.794 8.81396C119.478 8.35997 120.268 8.08888 121.087 8.02653C122.991 7.95158 123.962 8.70104 123.962 10.3129V12.973C123.962 13.9853 123.262 14.5469 121.902 14.6968C120.402 14.8232 118.925 15.151 117.512 15.6711C116.817 15.9722 116.204 16.4347 115.724 17.0201C115.203 17.6253 114.915 18.3954 114.908 19.1935C114.872 19.7278 114.954 20.2634 115.149 20.7622C115.344 21.261 115.647 21.7104 116.036 22.0785C116.869 22.7501 117.919 23.0963 118.989 23.0528C120.001 23.116 121.014 22.9361 121.942 22.5281C122.651 22.1 123.27 21.5404 123.768 20.8793C123.885 20.6545 123.962 20.5426 124.041 20.5426C124.12 20.5426 124.196 20.6555 124.313 20.8793C124.52 21.483 124.914 22.0047 125.439 22.3687C125.963 22.7327 126.59 22.9198 127.228 22.9029C128.124 22.9702 129.019 22.7609 129.792 22.3033C130.154 21.9457 130.43 21.5099 130.599 21.0293C130.767 20.5487 130.823 20.036 130.763 19.5303V17.132C130.763 16.7952 130.685 16.6074 130.491 16.6074C130.335 16.6074 130.258 16.7952 130.258 17.132C130.258 17.3568 130.258 17.7316 130.219 18.2562C130.18 18.7808 130.18 19.1925 130.18 19.4553C130.18 21.2171 129.676 22.1154 128.704 22.1154C127.926 22.1154 127.537 21.404 127.537 20.0169V11.4751C127.55 10.9335 127.429 10.3972 127.185 9.91353C126.941 9.42988 126.581 9.01379 126.138 8.70204C124.909 7.89128 123.451 7.49717 121.98 7.57785C120.45 7.55132 118.942 7.95354 117.628 8.73902C117.025 9.02841 116.513 9.47915 116.149 10.0414C115.786 10.6036 115.585 11.2554 115.569 11.9247H115.568ZM118.56 19.1196C118.548 18.2147 118.776 17.3229 119.22 16.5344C119.399 16.1867 119.658 15.8865 119.976 15.6584C120.293 15.4303 120.66 15.2808 121.047 15.2224C121.786 15.1105 122.368 15.0355 122.796 14.9226C123.065 14.8682 123.326 14.7799 123.573 14.6598C123.644 14.6182 123.724 14.5926 123.806 14.5848C123.923 14.5848 123.961 14.8097 123.961 15.2963V18.8188C123.953 19.7644 123.593 20.673 122.951 21.367C122.644 21.7129 122.267 21.9889 121.845 22.1763C121.422 22.3637 120.965 22.4581 120.502 22.4532C119.221 22.4542 118.561 21.33 118.561 19.1196H118.56ZM68.3957 11.8498C68.3815 12.4183 68.5907 12.9696 68.9783 13.3857C69.1712 13.5933 69.406 13.7575 69.6672 13.8674C69.9284 13.9773 70.2099 14.0304 70.4932 14.0232C70.753 14.0349 71.0122 13.9908 71.2535 13.8939C71.4948 13.7971 71.7126 13.6497 71.8922 13.4616C72.0683 13.2923 72.2075 13.0885 72.3012 12.8629C72.395 12.6373 72.4411 12.3948 72.4368 12.1506C72.4386 11.7746 72.3288 11.4066 72.1211 11.0931C71.9135 10.7796 71.6175 10.5349 71.2707 10.3898C71.2317 10.3898 71.0758 10.3149 70.765 10.2399C70.5712 10.165 70.4543 10.127 70.4543 10.0151C70.4543 9.67835 70.843 9.22867 71.6204 8.74102C72.3185 8.29141 73.1224 8.03298 73.9517 7.99155C75.8554 7.91661 76.7887 8.6291 76.7887 10.2399V12.9C76.7887 13.9113 76.0892 14.5109 74.7292 14.6608C73.2411 14.787 71.7771 15.1147 70.3773 15.6351C69.6498 15.9347 69.0085 16.4111 68.5116 17.0211C68.0195 17.6107 67.745 18.3516 67.7342 19.1196C67.7014 19.659 67.785 20.1993 67.9793 20.7036C68.1736 21.2079 68.4741 21.6645 68.8604 22.0425C69.706 22.7203 70.7697 23.0667 71.8522 23.0168C72.8669 23.0614 73.878 22.8688 74.8051 22.4542C75.5082 22.0492 76.1175 21.4999 76.5929 20.8424C76.7098 20.6175 76.8257 20.5056 76.9036 20.5056C76.9816 20.5056 77.0595 20.6185 77.1365 20.8424C77.3436 21.4458 77.7379 21.9675 78.262 22.3314C78.786 22.6954 79.4126 22.8826 80.0504 22.8659C80.96 22.9508 81.8727 22.7406 82.6535 22.2663C83.0063 21.9035 83.2733 21.4663 83.435 20.9868C83.5967 20.5073 83.6489 19.9977 83.5878 19.4953V17.0581C83.5878 16.7213 83.5099 16.5334 83.316 16.5334C83.1612 16.5334 83.0832 16.7203 83.0832 17.0581C83.0832 17.3199 83.0442 17.6956 83.0442 18.2202V19.4194C83.0442 21.1811 82.5396 22.0795 81.5673 22.0795C80.7905 22.0795 80.4018 21.3676 80.4011 19.944V11.4011C80.4072 10.847 80.2755 10.3001 80.0176 9.80954C79.7598 9.31902 79.3841 8.90031 78.9242 8.59112C77.7023 7.83517 76.2791 7.46919 74.8441 7.54187C73.3133 7.51046 71.8048 7.91304 70.4932 8.70304C69.8984 8.99772 69.3915 9.44352 69.0232 9.99579C68.6549 10.5481 68.4381 11.1874 68.3947 11.8498H68.3957ZM71.4266 19.0446C71.4151 18.1398 71.643 17.248 72.0871 16.4595C72.2735 16.1213 72.5352 15.8305 72.8519 15.6095C73.1687 15.3886 73.532 15.2435 73.9138 15.1854C74.502 15.1025 75.0856 14.9901 75.6625 14.8486C75.9193 14.8147 76.1688 14.7387 76.401 14.6238C76.4765 14.5928 76.5544 14.5678 76.6338 14.5489C76.7507 14.5489 76.8287 14.7737 76.8287 15.2603V18.7449C76.8209 19.6904 76.4607 20.5991 75.8184 21.293C75.5118 21.6515 75.13 21.9381 74.7001 22.1324C74.2703 22.3267 73.8029 22.4239 73.3312 22.4172C72.0471 22.4162 71.4256 21.294 71.4256 19.0446H71.4266ZM147.277 11.3631C147.16 11.3631 147.122 11.3631 147.122 11.3262C147.123 10.8054 147.004 10.2915 146.775 9.82384C146.546 9.35616 146.213 8.94713 145.801 8.6281C144.905 7.9944 143.829 7.66577 142.732 7.69077C141.701 7.63185 140.681 7.92134 139.835 8.51262C138.99 9.1039 138.367 9.96258 138.069 10.9504H137.914C137.875 9.71332 137.836 8.77699 137.836 8.17742C137.836 7.87763 137.681 7.76472 137.331 7.80269C134.611 7.98955 132.635 8.0645 131.425 8.13945C131.192 8.13945 131.075 8.25237 131.075 8.43923C131.075 8.58912 131.192 8.66407 131.425 8.70204C132.293 8.70218 133.153 8.88075 133.95 9.22667C134.183 9.37656 134.261 9.82624 134.261 10.5377V20.5805C134.32 21.0528 134.21 21.5308 133.95 21.9296C133.224 22.1735 132.461 22.2875 131.695 22.2663C131.424 22.2663 131.307 22.3413 131.307 22.4912C131.307 22.6041 131.424 22.678 131.656 22.678H139.817C140.088 22.678 140.205 22.6031 140.205 22.4912C140.205 22.3793 140.088 22.3043 139.817 22.2663C139.37 22.2368 138.927 22.1615 138.496 22.0415C138.3 21.9888 138.128 21.8711 138.008 21.7076C137.888 21.5442 137.827 21.3448 137.835 21.1421V18.1443C137.766 16.0334 137.936 13.9215 138.341 11.8488C138.923 9.6004 140.05 8.4772 141.638 8.4772C142.882 8.4772 143.504 9.26364 143.504 10.8755L143.426 21.1421C143.309 21.8916 142.571 22.2663 141.211 22.2663C140.939 22.2663 140.822 22.3413 140.822 22.4912C140.822 22.6041 140.939 22.678 141.211 22.678H149.06C149.332 22.678 149.449 22.6031 149.449 22.4912C149.449 22.3793 149.332 22.3043 149.06 22.2663C148.613 22.2368 148.17 22.1615 147.739 22.0415C147.543 21.9888 147.371 21.8711 147.251 21.7076C147.131 21.5442 147.07 21.3448 147.078 21.1421V18.0324C147.078 11.4371 148.284 8.17742 150.731 8.25237C152.169 8.28934 152.907 9.15172 152.907 10.8005L152.79 21.1421C152.79 21.8916 152.013 22.2663 150.459 22.2663C150.187 22.2663 150.07 22.3413 150.07 22.4912C150.07 22.6041 150.187 22.678 150.459 22.678H158.502C158.774 22.678 158.93 22.6031 158.93 22.4912C158.93 22.3413 158.774 22.2663 158.502 22.2663C156.948 22.2663 156.21 21.8916 156.21 21.1421L156.443 11.8118C156.481 11.2379 156.381 10.6632 156.152 10.1355C155.923 9.60778 155.572 9.14238 155.127 8.77799C154.147 7.96717 152.899 7.55256 151.629 7.61582C151.088 7.57123 150.543 7.63804 150.028 7.81214C149.514 7.98624 149.04 8.26394 148.637 8.6281C148.024 9.45132 147.563 10.3776 147.276 11.3631H147.277Z" fill="#6F6F6F"/>
</svg>
