<svg width="87" height="30" viewBox="0 0 87 30" fill="none" xmlns="http://www.w3.org/2000/svg">
<path fill-rule="evenodd" clip-rule="evenodd" d="M0.980957 0H86.0771V30H0.980957V0ZM1.84653 15.0723C1.84653 7.46498 20.5726 1.29814 43.6735 1.29814C66.7738 1.29814 85.4999 7.46498 85.4999 15.0723C85.4999 22.6797 66.7738 28.8465 43.6735 28.8465C20.5731 28.8465 1.84653 22.6797 1.84653 15.0723C1.84653 22.6797 1.84653 15.0723 1.84653 15.0723Z" fill="#6F6F6F"/>
<path fill-rule="evenodd" clip-rule="evenodd" d="M1.84619 15.071C1.84619 7.46371 20.5723 1.29688 43.6731 1.29688C66.7735 1.29688 85.4996 7.46371 85.4996 15.071C85.4996 22.6784 66.7735 28.8452 43.6731 28.8452C20.5728 28.8452 1.84619 22.6784 1.84619 15.071C1.84619 22.6784 1.84619 15.071 1.84619 15.071Z" fill="#EEEEEE"/>
<path fill-rule="evenodd" clip-rule="evenodd" d="M13.2658 9.39365H20.7007C20.7007 9.39365 20.5024 9.70567 20.5024 10.0955V19.6668C20.5024 20.1867 20.7253 20.6288 20.7253 20.6288H13.2412C13.2412 20.6288 13.4641 20.1863 13.4641 19.7442V10.1733C13.4641 9.80938 13.2658 9.39365 13.2658 9.39365ZM24.4023 9.41912H31.472C31.472 9.41912 31.2737 9.75207 31.2737 10.06V13.4941L33.779 10.2906C33.779 10.2906 33.9282 10.06 33.9282 9.82939V9.47052H41.1216L38.0705 13.7247C38.0705 13.7247 37.9217 13.9039 37.9217 14.0322C37.9217 14.1605 38.0459 14.3397 38.0459 14.3397L41.9653 20.567H33.3073C33.3073 20.567 33.4565 20.3368 33.4565 20.1058C33.4565 19.8756 33.3073 19.5932 33.3073 19.5932L31.2482 16.2359V19.8756C31.2482 20.1831 31.4715 20.5925 31.4715 20.5925H24.4023C24.4023 20.5925 24.6006 20.3109 24.6006 20.0034V10.0595C24.6006 9.75252 24.4023 9.41912 24.4023 9.41912ZM44.0708 9.4969H56.717V12.8937C56.717 12.8937 56.444 12.6422 56.0979 12.6422H50.9149V13.5728H55.4279V16.5671C55.4279 16.5671 55.1304 16.3155 54.808 16.3155H50.8653V17.3471H56.1716C56.4691 17.3471 56.6433 16.8691 56.6433 16.8691V20.5925H44.0708C44.0708 20.5925 44.2946 20.2654 44.2946 20.0389V10.3275C44.2951 9.92446 44.0708 9.4969 44.0708 9.4969ZM62.312 9.375H72.4233C72.4233 9.375 72.225 9.84304 72.225 10.1032C72.225 10.3634 72.3983 10.8314 72.3983 10.8314L76.4378 20.6106H68.8546C68.8546 20.6106 69.0279 20.3245 68.9283 20.0908C68.7195 19.5714 68.5131 19.051 68.3092 18.5297H65.1867C65.1867 18.5297 64.5667 19.9084 64.5667 20.169C64.5667 20.4283 64.7659 20.637 64.7659 20.637H58.52L62.4358 10.4152C62.4358 10.4152 62.585 10.2069 62.585 9.9472C62.585 9.68748 62.312 9.375 62.312 9.375ZM66.5994 14.3688L65.8558 16.3715H67.4914L66.5994 14.3688Z" fill="#6F6F6F"/>
</svg>
