<svg width="224" height="30" viewBox="0 0 224 30" fill="none" xmlns="http://www.w3.org/2000/svg">
<path d="M120.317 6.11429H123.752V23.8929H119.374L114.281 15.7143C113.41 14.2857 112.667 12.7643 112.667 12.7643H112.617V23.8929H109.167V6.11429H113.209L119.245 15.8C119.648 16.4376 119.995 17.1092 120.281 17.8071V6.11429H120.317ZM140.074 13.3929H134.088V6.10714H129.724V23.8857H134.088V16.3H140.074V23.8857H144.459V6.10714H140.074V13.3929ZM76.1809 16.1571H81.8523V13.4857H76.1809V8.85714H83.7738V6.11429H71.8024V23.8929H83.9024V20.9286H76.1809V16.1643V16.1571ZM60.4238 10.1571C60.3225 10.0389 60.2583 9.89347 60.2392 9.73898C60.22 9.58449 60.2467 9.42778 60.3161 9.28839C60.3854 9.149 60.4942 9.0331 60.6289 8.95514C60.7637 8.87718 60.9184 8.84062 61.0738 8.85H67.5809V6.11429H59.8809C58.8926 6.08284 57.9311 6.43857 57.2013 7.10569C56.4715 7.77282 56.031 8.69858 55.9738 9.68572C55.9738 10.7286 56.0524 11.4857 57.6166 13.1286L63.4095 19.2C63.5624 19.3332 63.6704 19.5103 63.719 19.7072C63.7675 19.904 63.7542 20.1111 63.6807 20.3C63.6073 20.489 63.4774 20.6508 63.3087 20.7633C63.14 20.8758 62.9408 20.9335 62.7381 20.9286H55.5952V23.8929H63.7666C64.3286 23.912 64.8888 23.8182 65.4139 23.6171C65.939 23.4161 66.4186 23.1118 66.8241 22.7222C67.2296 22.3327 67.5529 21.8658 67.7749 21.3491C67.997 20.8325 68.1131 20.2766 68.1166 19.7143C68.1166 18.5357 67.8381 17.75 66.2881 16.1429L60.4238 10.1571ZM99.7666 17.7857C99.4806 17.0877 99.1341 16.4161 98.7309 15.7786L92.6952 6.09286H88.6524V23.8929H92.0881V12.7857H92.1381C92.1381 12.7857 92.8523 14.3286 93.7523 15.7357L98.8523 23.9143H103.231V6.11429H99.7952V17.7929L99.7666 17.7857ZM196.267 16.1571H201.938V13.4857H196.267V8.85714H203.859V6.11429H191.888V23.8929H203.988V20.9286H196.267V16.1643V16.1571ZM223.202 23.8929H218.452L215.038 16.5929H213.124V23.8929H208.752V6.11429H216.724C220.567 6.11429 222.352 8.50714 222.352 11.2714C222.352 12.3306 222.021 13.3631 221.407 14.2259C220.792 15.0886 219.924 15.7386 218.924 16.0857L223.202 23.8929ZM218.609 11.3857C218.609 10.5643 218.131 8.85714 215.824 8.85714H213.117V13.9143H215.774C218.174 13.9143 218.609 12.1429 218.609 11.3857ZM180.452 10.1643C180.351 10.046 180.287 9.90061 180.268 9.74612C180.249 9.59163 180.275 9.43493 180.345 9.29554C180.414 9.15614 180.523 9.04024 180.658 8.96229C180.792 8.88433 180.947 8.84776 181.102 8.85714H187.609V6.11429H179.881C178.893 6.08284 177.931 6.43857 177.201 7.10569C176.471 7.77282 176.031 8.69858 175.974 9.68572C175.974 10.7286 176.052 11.4857 177.617 13.1286L183.409 19.2C183.575 19.3283 183.696 19.5061 183.754 19.7076C183.812 19.909 183.804 20.1237 183.731 20.3205C183.659 20.5172 183.526 20.6857 183.351 20.8014C183.176 20.9172 182.969 20.9743 182.759 20.9643H175.595V23.9286H183.767C184.329 23.9477 184.889 23.8539 185.414 23.6529C185.939 23.4518 186.419 23.1475 186.824 22.7579C187.23 22.3684 187.553 21.9015 187.775 21.3849C187.997 20.8682 188.113 20.3123 188.117 19.75C188.117 18.5714 187.838 17.7857 186.288 16.1786L180.452 10.1643ZM154.802 16.1643H160.474V13.4857H154.809V8.85714H162.402V6.11429H150.431V23.8929H162.531V20.9286H154.809V16.1643H154.802ZM167.288 23.9H171.667V6.11429H167.288V23.8929V23.9ZM0.595215 0V30H40.5952V0H0.595215ZM22.6095 2.76429C20.2309 3.67857 17.9452 5.69286 16.1024 9.73571C15.5666 10.9071 14.5595 13.1714 14.1024 14.1857C10.3952 22.3214 8.49521 24.0714 2.90236 24.0714V2.25H22.5095C22.5734 2.24621 22.6365 2.26575 22.6871 2.305C22.7377 2.34424 22.7724 2.40052 22.7846 2.46338C22.7968 2.52623 22.7858 2.59139 22.7536 2.64673C22.7214 2.70208 22.6702 2.74385 22.6095 2.76429ZM38.3238 5.92143V27.75H18.6809C18.6177 27.7518 18.556 27.7308 18.5069 27.691C18.4578 27.6511 18.4246 27.595 18.4134 27.5328C18.4022 27.4706 18.4136 27.4064 18.4457 27.3519C18.4777 27.2974 18.5282 27.2561 18.5881 27.2357C20.9666 26.3214 23.2524 24.3071 25.0952 20.2643C25.6309 19.0929 26.6381 16.8286 27.0952 15.8143C30.7952 7.67857 32.6952 5.92857 38.2881 5.92857L38.3238 5.92143Z" fill="#6F6F6F"/>
</svg>
