<svg width="49" height="30" viewBox="0 0 49 30" fill="none" xmlns="http://www.w3.org/2000/svg">
<path fill-rule="evenodd" clip-rule="evenodd" d="M40.6284 7.2239L38.6834 9.16872H35.6282L33.9615 10.8352V9.16872H31.4614V1.11303H40.6284V7.2239ZM30.3499 0.00192738L29.7944 2.22428V12.2241H32.2947V13.6133H33.6832L35.0726 12.2241H37.2945L41.7389 7.78023V0.00192738H30.3499Z" fill="#6F6F6F"/>
<path fill-rule="evenodd" clip-rule="evenodd" d="M34.5161 6.66797H35.6272V3.33408H34.5161V6.66797ZM37.5715 6.66797H38.6826V3.33408H37.5715V6.66797Z" fill="#6F6F6F"/>
<path fill-rule="evenodd" clip-rule="evenodd" d="M47.571 19.4453L45.627 17.5014H42.0157V15.0013H38.9598V26.3894H42.0157V20.5562H44.5151V26.3894H47.571V19.4453ZM37.8495 17.5014H33.1276L31.1832 19.4453V24.4447L33.1276 26.3894H37.8495V23.3344H34.2382V20.5562H37.8495V17.5014ZM30.0721 17.5014H27.5727V15.0013H24.5168V24.4447L26.4612 26.3894H30.0721V23.3344H27.5727V20.5562H30.0721V17.5014ZM23.4058 15.0013H20.3508V16.3905H23.4058V15.0013ZM23.4058 17.5014H20.3508V26.3893H23.4058V17.5014ZM19.2397 17.5014H16.1844V23.3344H15.0737V17.5014H12.0183V23.3344H10.9077V17.5014H7.85179V26.3894H17.2958L19.2397 24.4447V17.5014ZM6.74075 17.5014H4.24118V15.0013H1.18588V24.4447L3.13015 26.3894H6.74075V23.3344H4.24118V20.5562H6.74075V17.5014ZM48.6812 18.8897V27.2222L44.5151 30H41.7377V28.6107L39.7935 30H37.294V28.6107L35.9056 30H31.4614L30.0721 28.6107L29.794 30H25.9061L24.3161 28.6107L24.2271 30H19.8201L19.6643 28.6107L18.4713 30H11.7402L10.3512 29.4444V30H6.74075L2.57428 27.4996L0.074707 25.001V13.8905H5.35236L7.85179 16.3905H19.2397V13.8905H28.6833V16.3905H31.1832V17.7789L32.5724 16.3905H35.3493L37.8495 13.8905H43.1267V16.3905H46.1822L48.6812 18.8897Z" fill="#6F6F6F"/>
</svg>
