<svg width="152" height="28" viewBox="0 0 152 28" fill="none" xmlns="http://www.w3.org/2000/svg">
<g opacity="0.8">
<path d="M133.605 0C133.058 0 132.616 0.442573 132.616 0.988302V7.9198H150.925L142.587 0.000639358L133.605 0Z" fill="#9D9D9D"/>
<path d="M151.595 10.015C151.595 9.46801 151.156 9.02734 150.606 9.02734H143.677V27.3377L151.592 18.9957L151.595 10.015Z" fill="#9D9D9D"/>
<path d="M141.578 28.0012C142.123 28.0012 142.565 27.558 142.565 27.011V20.082H124.255L132.594 27.9999L141.578 28.0012Z" fill="#9D9D9D"/>
<path d="M123.585 17.9881C123.585 18.5345 124.028 18.9796 124.576 18.9796H131.504V0.667969L123.587 9.00741L123.585 17.9881Z" fill="#9D9D9D"/>
<path d="M39.6607 3.34366V11.7996H27.8801V3.34366L23.5894 3.33984V24.6609H27.8801V15.5013H39.6607V24.6609H43.9585V3.34366H39.6607Z" fill="#6F6F6F"/>
<path d="M96.7407 3.34375V24.6559H115.565L113.181 20.904H101.044V15.5014H112.796V11.8876H101.044V7.00785H113.16L115.496 3.34375H96.7407Z" fill="#6F6F6F"/>
<path d="M7.64039 3.33984C3.17712 3.33984 0.922852 6.05322 0.922852 10.0013V17.96C0.922852 22.529 3.8279 24.6622 7.6181 24.6622L21.0799 24.6609L18.5843 20.7638H8.44976C6.29675 20.7638 5.35876 19.9856 5.35876 17.576V10.3554C5.35876 8.02601 6.14839 7.1173 8.50706 7.1173H18.69L21.0863 3.33984H7.64039Z" fill="#6F6F6F"/>
<path d="M77.9126 3.33322C75.3349 3.33322 72.6928 4.88253 72.6928 8.86759V9.89154C72.6928 14.046 75.2349 15.631 77.7783 15.6418H86.7055C87.6326 15.6418 88.3859 15.7959 88.3859 17.363L88.3847 19.1734C88.3611 20.5814 87.6587 20.9036 86.6736 20.9036H74.9292L72.5234 24.6556H86.95C90.4288 24.6556 92.7907 22.9248 92.7907 18.927V17.4579C92.7907 13.5926 90.5963 11.7663 87.1939 11.7663H78.6698C77.7248 11.7663 77.0663 11.5084 77.0663 10.1087V8.63452C77.0663 7.44244 77.5178 7.00751 78.6188 7.00751L89.8034 7.00306L92.1411 3.32812L77.9126 3.33322Z" fill="#6F6F6F"/>
<path d="M56.4245 3.34375L46.3154 24.6597H51.0933L53.0623 20.2576H64.0476L66.0102 24.6597H70.809L60.6764 3.34375H56.4245ZM58.5444 7.76946L62.4289 16.6292H54.6848L58.5444 7.76946Z" fill="#6F6F6F"/>
</g>
</svg>
