<svg width="97" height="30" viewBox="0 0 97 30" fill="none" xmlns="http://www.w3.org/2000/svg">
<path d="M28.1165 21.2683C27.9654 20.9029 27.8237 20.5188 27.6725 20.1909L26.9734 18.6263L26.945 18.5982C24.8666 14.1012 22.6465 9.52932 20.2941 5.03234L20.1996 4.84496C19.9634 4.40463 19.7272 3.91746 19.4816 3.46776C19.1793 2.93374 18.8864 2.36225 18.4046 1.81887C17.9349 1.25031 17.3438 0.792234 16.674 0.477695C16.0042 0.163156 15.2723 0 14.5311 0C13.79 0 13.0581 0.163156 12.3882 0.477695C11.7184 0.792234 11.1273 1.25031 10.6577 1.81887C10.2136 2.36225 9.88297 2.93374 9.58066 3.46776C9.34447 3.95493 9.10828 4.43274 8.86265 4.87307L8.76818 5.06044C6.45356 9.55742 4.19562 14.1294 2.11718 18.6263L2.0605 18.6825C1.85265 19.1697 1.60702 19.6756 1.37083 20.219C1.21968 20.5469 1.06852 20.9029 0.917357 21.2964C0.509259 22.3268 0.37894 23.4448 0.539245 24.5403C0.699549 25.6358 1.14494 26.671 1.83153 27.5439C2.51812 28.4167 3.42221 29.097 4.45469 29.5179C5.48717 29.9387 6.61241 30.0855 7.71951 29.9437C8.7809 29.8052 9.80293 29.4546 10.7238 28.9132C11.952 28.2293 13.1329 27.2362 14.4555 25.8028C15.7782 27.2362 16.9874 28.2293 18.1873 28.9225C19.3411 29.5941 20.6477 29.9648 21.9851 29.9999C23.5339 30.0063 25.0327 29.4568 26.2048 28.4529C27.3769 27.449 28.1432 26.0584 28.3622 24.538C28.6152 23.4454 28.5296 22.3025 28.1165 21.2589V21.2683ZM14.55 22.8235C12.925 20.7624 11.8669 18.8699 11.5079 17.2491C11.3592 16.6485 11.3271 16.0254 11.4135 15.4129C11.4796 14.9351 11.6591 14.5135 11.9047 14.1575C12.4716 13.3424 13.4636 12.8365 14.55 12.8365C15.066 12.8208 15.5778 12.9325 16.0395 13.1614C16.5012 13.3904 16.8983 13.7294 17.1953 14.1481C17.4409 14.5228 17.6204 14.9351 17.6771 15.4129C17.7716 15.9563 17.7338 16.584 17.5826 17.2491C17.2236 18.8418 16.1655 20.753 14.55 22.8235ZM26.586 24.2101C26.4787 24.982 26.1693 25.7126 25.6886 26.329C25.2079 26.9454 24.5727 27.4262 23.8463 27.7233C23.1283 28.0231 22.3347 28.1075 21.56 28.0231C20.8042 27.9295 20.0484 27.6859 19.2737 27.2362C17.9875 26.4478 16.8309 25.4683 15.8443 24.3319C17.8283 21.896 19.0281 19.6756 19.4816 17.6988C19.6989 16.762 19.7272 15.9188 19.6327 15.1412C19.5148 14.4041 19.2376 13.701 18.8203 13.0801C18.3437 12.4067 17.7077 11.8597 16.968 11.4873C16.2284 11.1148 15.4078 10.9282 14.5784 10.944C12.8306 10.944 11.2717 11.7497 10.327 13.0707C9.90172 13.6901 9.62686 14.3988 9.52397 15.1412C9.40116 15.9281 9.4295 16.7994 9.67513 17.6988C10.1286 19.6756 11.3568 21.9241 13.3124 24.3506C12.3426 25.5087 11.1833 26.4969 9.88297 27.2736C9.09884 27.7233 8.35249 27.9576 7.5967 28.0513C6.42133 28.2006 5.23403 27.8838 4.29289 27.1698C3.35175 26.4558 2.73283 25.4022 2.57066 24.2382C2.47618 23.4887 2.54232 22.7392 2.84463 21.896C2.93911 21.5962 3.08082 21.2964 3.23198 20.9404C3.43982 20.4532 3.68546 19.9473 3.92164 19.4414L3.95943 19.3758C6.00008 14.907 8.22967 10.3444 10.5443 5.87552L10.6388 5.68815C10.875 5.23845 11.1111 4.76064 11.3568 4.31094C11.6024 3.83314 11.8669 3.37407 12.207 2.99933C12.5014 2.65083 12.8693 2.37057 13.2847 2.17827C13.7001 1.98597 14.153 1.88631 14.6114 1.88631C15.0699 1.88631 15.5227 1.98597 15.9381 2.17827C16.3535 2.37057 16.7214 2.65083 17.0158 2.99933C17.3465 3.37407 17.6204 3.83314 17.8661 4.31094C18.1022 4.76064 18.3384 5.24782 18.5841 5.68815L18.6785 5.87552C20.9837 10.3444 23.2133 14.907 25.2917 19.3758L25.3201 19.4039C25.5657 19.8911 25.7736 20.4345 26.0098 20.9029C26.1609 21.2683 26.3121 21.5587 26.4065 21.8679C26.586 22.7111 26.6805 23.4606 26.586 24.2101ZM39.7369 22.6174C39.025 22.6277 38.3199 22.479 37.6739 22.1822C37.0278 21.8854 36.4575 21.4482 36.0051 20.9029C34.9887 19.7412 34.4492 18.2432 34.4935 16.7057C34.478 15.1348 35.0349 13.6111 36.0618 12.4149C36.5368 11.8627 37.1281 11.4205 37.7941 11.1194C38.4601 10.8184 39.1845 10.6657 39.9164 10.6723C40.605 10.6536 41.2872 10.8089 41.8987 11.1236C42.5101 11.4382 43.0309 11.9019 43.4119 12.4711L43.5064 11.0002H46.2651V22.3176H43.497L43.4025 20.6687C43.0096 21.2764 42.4666 21.7745 41.8251 22.1155C41.1835 22.4566 40.4647 22.6293 39.7369 22.6174ZM40.4549 19.9192C41.0028 19.9192 41.4846 19.7693 41.9381 19.4976C42.3538 19.1978 42.6939 18.8043 42.9585 18.3265C43.1946 17.8487 43.3175 17.2772 43.3175 16.6402C43.3543 16.0868 43.2457 15.5335 43.0022 15.0343C42.7588 14.5351 42.3889 14.107 41.9287 13.7921C41.4865 13.5189 40.9759 13.374 40.4549 13.374C39.9339 13.374 39.4233 13.5189 38.9811 13.7921C38.5654 14.0919 38.2253 14.4854 37.9608 14.9632C37.7109 15.4901 37.588 16.0674 37.6018 16.6495C37.5649 17.2029 37.6735 17.7562 37.917 18.2554C38.1604 18.7546 38.5303 19.1827 38.9905 19.4976C39.4346 19.7693 39.9164 19.9192 40.4549 19.9192ZM50.9888 7.946C50.9888 8.27391 50.9321 8.57371 50.7809 8.81729C50.6298 9.05151 50.4219 9.26699 50.148 9.41689C49.874 9.56679 49.5811 9.623 49.2788 9.623C48.9765 9.623 48.6741 9.56679 48.4002 9.41689C48.1411 9.27384 47.9232 9.06743 47.7672 8.81729C47.6209 8.55041 47.5491 8.24961 47.5594 7.946C47.5594 7.60873 47.6255 7.30893 47.7672 7.07471C47.9184 6.79365 48.1356 6.62502 48.4002 6.47512C48.6741 6.32522 48.967 6.25964 49.2788 6.25964C49.5795 6.25276 49.8769 6.32339 50.1418 6.46462C50.4068 6.60584 50.6302 6.81283 50.7904 7.06535C50.9279 7.33849 50.996 7.64081 50.9888 7.946ZM47.7766 22.2801V10.9815H50.7809V22.2989H47.7672L47.7766 22.2801ZM58.8112 13.942V13.9795C58.6695 13.9139 58.4806 13.8858 58.3389 13.8577C58.1499 13.8202 57.9988 13.8202 57.8193 13.8202C56.9784 13.8202 56.3455 14.0638 55.9298 14.5697C55.4763 15.085 55.2685 15.8064 55.2685 16.7339V22.2895H52.2547V10.9721H55.0228L55.1173 12.6866C55.4196 12.087 55.7786 11.6373 56.2888 11.3C56.7962 10.9723 57.3936 10.8086 57.9988 10.8316C58.2161 10.8316 58.4239 10.8503 58.6034 10.8878C58.6979 10.9159 58.7546 10.9159 58.8112 10.944V13.942ZM60.0205 22.2801V6.33459H63.0248V12.4242C63.4499 11.8809 63.9318 11.4593 64.5364 11.1314C65.4936 10.666 66.581 10.5339 67.6232 10.7566C68.6653 10.9793 69.6014 11.5437 70.2804 12.3587C71.2992 13.5228 71.8388 15.0245 71.792 16.5652C71.8076 18.1362 71.2507 19.6598 70.2238 20.8561C69.7487 21.4083 69.1574 21.8504 68.4915 22.1515C67.8255 22.4526 67.1011 22.6052 66.3692 22.5987C65.6805 22.6174 64.9984 22.4621 64.3869 22.1474C63.7754 21.8327 63.2547 21.369 62.8736 20.7999L62.7792 22.2708L60.0205 22.2989V22.2801ZM65.8307 19.9192C66.3692 19.9192 66.851 19.7693 67.3045 19.4976C67.7202 19.1978 68.0603 18.8043 68.3248 18.3265C68.5705 17.8487 68.6838 17.2772 68.6838 16.6402C68.6838 16.0125 68.5705 15.441 68.3248 14.9632C68.0767 14.5024 67.7282 14.1024 67.3045 13.7921C66.8623 13.5189 66.3517 13.374 65.8307 13.374C65.3097 13.374 64.7991 13.5189 64.3569 13.7921C63.9318 14.0919 63.6011 14.4854 63.3271 14.9632C63.0773 15.4901 62.9544 16.0674 62.9681 16.6495C62.9313 17.2029 63.0399 17.7562 63.2833 18.2554C63.5268 18.7546 63.8967 19.1827 64.3569 19.4976C64.8009 19.7693 65.2828 19.9192 65.8307 19.9192ZM72.9257 22.2895V10.9721H75.6938L75.7883 12.443C76.1362 11.8792 76.6296 11.4177 77.2176 11.1064C77.8055 10.7951 78.4667 10.6452 79.1327 10.6723C79.8942 10.6593 80.6428 10.8692 81.2847 11.2757C81.9266 11.6823 82.4333 12.2676 82.7416 12.9583C83.0723 13.6703 83.2518 14.5509 83.2518 15.5347V22.3176H80.238V15.9281C80.238 15.1412 80.0585 14.5228 79.6995 14.0638C79.3405 13.6141 78.8493 13.3705 78.2257 13.3705C77.7723 13.3705 77.3755 13.4642 77.0259 13.6703C76.6953 13.8858 76.4213 14.1575 76.2134 14.5416C76.0033 14.9299 75.8991 15.3658 75.9111 15.8064V22.2895H72.9257ZM84.7539 22.2895V6.32522H87.7676V12.4149C88.1758 11.8685 88.7069 11.4239 89.3186 11.1166C89.9303 10.8092 90.6058 10.6475 91.2915 10.6442C92.0034 10.6339 92.7086 10.7826 93.3546 11.0794C94.0006 11.3762 94.5709 11.8134 95.0233 12.3587C96.0347 13.5227 96.5706 15.0199 96.5254 16.5558C96.5418 18.1269 95.9848 19.6509 94.9571 20.8467C94.4821 21.3989 93.8908 21.8411 93.2249 22.1422C92.5589 22.4432 91.8345 22.5959 91.1026 22.5893C90.4139 22.608 89.7318 22.4527 89.1203 22.138C88.5088 21.8234 87.9881 21.3597 87.607 20.7905L87.522 22.2614L84.7539 22.2895ZM90.5924 19.9192C91.1404 19.9192 91.6222 19.7693 92.0662 19.4976C92.4914 19.1978 92.822 18.8043 93.096 18.3265C93.3322 17.8487 93.455 17.2772 93.455 16.6402C93.4918 16.0868 93.3832 15.5335 93.1398 15.0343C92.8964 14.5351 92.5265 14.107 92.0662 13.7921C91.624 13.5189 91.1134 13.374 90.5924 13.374C90.0714 13.374 89.5608 13.5189 89.1186 13.7921C88.7029 14.0919 88.3628 14.4854 88.0983 14.9632C87.8346 15.4854 87.711 16.0662 87.7393 16.6495C87.7025 17.2029 87.8111 17.7562 88.0545 18.2554C88.2979 18.7546 88.6679 19.1827 89.1281 19.4976C89.5721 19.7693 90.0256 19.9192 90.5924 19.9192Z" fill="#9D9D9D"/>
</svg>
