<svg width="117" height="30" viewBox="0 0 117 30" fill="none" xmlns="http://www.w3.org/2000/svg">
<path fill-rule="evenodd" clip-rule="evenodd" d="M47.9366 19.6788V16.9176C46.7419 17.1167 46.0781 17.2893 45.4144 17.5681C44.4852 17.9265 44.2197 18.3645 44.2197 19.5061C44.2197 20.5415 44.6179 20.9266 45.4144 20.9266C46.211 20.9266 47.1401 20.4751 47.9366 19.6788ZM42.4941 13.453L42.0959 13.6124L41.1667 11.0636C42.3614 10.4397 42.8923 10.2539 43.9543 10.0018C45.0163 9.74947 46.0781 9.61674 47.2728 9.61674C50.7242 9.61674 51.9189 10.8115 51.9189 14.3424V21.1256C51.9189 21.8423 52.3171 22.2007 53.1135 22.2007H53.2462V23.6212H49.2641C48.4675 23.6212 48.0693 23.2097 48.0693 22.3468V21.922C47.2728 22.6522 47.0073 22.8115 46.3437 23.1167C45.6799 23.5415 44.7508 23.7539 43.8215 23.7539C41.4321 23.7539 40.3701 22.5061 40.3701 19.891C40.3701 17.8069 41.1667 16.4795 42.8923 15.7892C43.4234 15.5637 43.9543 15.3911 44.4852 15.2583C45.5472 15.0326 46.0781 14.9265 47.9366 14.6211V14.276C47.9366 13.0549 47.5382 12.6168 46.211 12.6168C45.9453 12.6168 45.4144 12.6698 45.0163 12.7229C44.2197 12.8689 43.5561 13.0282 42.4941 13.453ZM38.2491 6.80105C38.2491 5.57971 37.3198 4.86284 35.8596 4.86284C34.2667 4.86284 33.4704 5.57971 33.4704 6.80105C33.4704 8.04882 34.2667 8.77881 35.8596 8.77881C37.3198 8.77881 38.2491 8.04882 38.2491 6.80105ZM38.1163 23.6195V11.1683C38.1163 10.3053 37.5854 9.80087 36.7889 9.80087H32.6738V11.301H32.9393C33.7358 11.301 34.0013 11.6328 34.0013 12.3894V23.6195H38.1163ZM11.1678 16.1906H6.92001L9.17672 8.84998L11.1678 16.1906ZM4.92894 23.611L6.25638 19.1375H11.6987L13.0261 23.611H17.5396L12.7607 6.63319C12.4952 5.51815 11.9643 5.15971 10.7696 5.15971H4.13239V6.68625H4.66349C5.45984 6.68625 5.85801 6.93838 5.85801 7.54915C5.85801 7.93402 5.85801 8.18635 5.45984 9.10211L0.681152 23.611H4.92894ZM23.2471 23.611V6.51378C23.2471 5.62425 22.716 5.15971 21.7869 5.15971H17.6719V6.68625H17.9373C18.7337 6.68625 19.132 7.01806 19.132 7.73493V23.611H23.2471ZM30.6812 6.51378V23.611H26.5661V7.73493C26.5661 7.01806 26.168 6.68625 25.3714 6.68625H25.106V5.15971H29.221C30.1501 5.15971 30.6812 5.62425 30.6812 6.51378ZM59.485 23.6063V14.2347C60.4141 13.3718 61.0779 13.04 62.0072 13.04C62.9362 13.04 63.2017 13.4381 63.2017 14.8453V23.6063H67.3167V14.1814C67.3167 12.2434 67.0513 11.4071 66.5204 10.6771C65.8566 9.96027 65.0602 9.62846 63.8655 9.62846C62.2726 9.62846 61.0779 10.2124 59.2195 11.8186V11.0753C59.2195 10.2124 58.8212 9.78761 58.0248 9.78761H54.0425V11.2877H54.1752C54.9718 11.2877 55.3699 11.6195 55.3699 12.3761V23.6063H59.485ZM73.9576 20.9635H80.0638V23.605H69.4443V20.7377L75.4178 12.4015H72.2319C71.4354 12.4015 71.0372 12.7068 71.0372 13.4634V13.7422H69.577V11.2334C69.577 10.2112 69.9752 9.78642 71.0372 9.78642H79.7982V12.6271L73.9576 20.9635Z" fill="#6F6F6F"/>
<path fill-rule="evenodd" clip-rule="evenodd" d="M103.556 22.8451V7.20794C103.556 5.94688 103.026 5.53537 101.831 5.53537H98.2467V7.26109H98.645C99.3087 7.26109 99.5742 7.51325 99.5742 8.28316V22.8451H103.556ZM105.68 22.8451H109.53V11.0442C109.53 9.84955 108.999 9.37166 107.804 9.37166H105.68V22.8451ZM97.4503 22.8451V9.37166H95.3264C94.1318 9.37166 93.6007 9.84955 93.6007 11.0442V22.8451H97.4503ZM114.043 14.9868C114.043 22.3009 108.733 27.6371 101.565 27.6371C94.3972 27.6371 89.0874 22.3009 89.0874 14.9868C89.0874 7.67261 94.3972 2.33629 101.565 2.33629C108.733 2.33629 114.043 7.67261 114.043 14.9868ZM116.565 14.9868C116.565 6.42482 110.194 0 101.565 0C93.0697 0 86.5654 6.42482 86.5654 14.9868C86.5654 23.5752 93.0697 30 101.565 30C110.194 30 116.565 23.5752 116.565 14.9868Z" fill="#6F6F6F"/>
</svg>
