<svg width="33" height="32" viewBox="0 0 33 32" fill="none" xmlns="http://www.w3.org/2000/svg">
<path d="M16.496 10.6644C13.558 10.6644 11.1604 13.062 11.1604 16C11.1604 18.938 13.558 21.3356 16.496 21.3356C19.434 21.3356 21.8316 18.938 21.8316 16C21.8316 13.062 19.434 10.6644 16.496 10.6644ZM32.4988 16C32.4988 13.7905 32.5188 11.601 32.3947 9.39554C32.2707 6.83381 31.6863 4.56027 29.813 2.68701C27.9357 0.809737 25.6662 0.229345 23.1045 0.105261C20.895 -0.018823 18.7055 0.00119058 16.5 0.00119058C14.2905 0.00119058 12.101 -0.018823 9.89554 0.105261C7.33381 0.229345 5.06027 0.813739 3.18701 2.68701C1.30974 4.56427 0.729345 6.83381 0.605261 9.39554C0.481177 11.605 0.501191 13.7945 0.501191 16C0.501191 18.2055 0.481177 20.399 0.605261 22.6045C0.729345 25.1662 1.31374 27.4397 3.18701 29.313C5.06427 31.1903 7.33381 31.7707 9.89554 31.8947C12.105 32.0188 14.2945 31.9988 16.5 31.9988C18.7095 31.9988 20.899 32.0188 23.1045 31.8947C25.6662 31.7707 27.9397 31.1863 29.813 29.313C31.6903 27.4357 32.2707 25.1662 32.3947 22.6045C32.5228 20.399 32.4988 18.2095 32.4988 16ZM16.496 24.2095C11.9529 24.2095 8.28645 20.5431 8.28645 16C8.28645 11.4569 11.9529 7.79045 16.496 7.79045C21.0391 7.79045 24.7055 11.4569 24.7055 16C24.7055 20.5431 21.0391 24.2095 16.496 24.2095ZM25.0418 9.37152C23.9811 9.37152 23.1245 8.51494 23.1245 7.45423C23.1245 6.39351 23.9811 5.53693 25.0418 5.53693C26.1025 5.53693 26.9591 6.39351 26.9591 7.45423C26.9594 7.7061 26.91 7.95556 26.8138 8.18832C26.7175 8.42108 26.5763 8.63256 26.3982 8.81066C26.2201 8.98876 26.0086 9.12998 25.7759 9.22622C25.5431 9.32246 25.2936 9.37184 25.0418 9.37152Z" fill="#9D9D9D"/>
</svg>
