<svg width="19" height="16" viewBox="0 0 19 16" fill="none" xmlns="http://www.w3.org/2000/svg">
<path d="M9.12161 4.56745L9.1601 5.20212L8.51861 5.1244C6.18359 4.8265 4.14366 3.8162 2.41164 2.11943L1.56487 1.27752L1.34677 1.89924C0.884893 3.28515 1.17998 4.74878 2.14221 5.73317C2.6554 6.27717 2.53993 6.35489 1.65468 6.03108C1.34677 5.92746 1.07734 5.84974 1.05168 5.8886C0.961872 5.97927 1.26979 7.15794 1.51355 7.62423C1.84713 8.27185 2.5271 8.90652 3.27123 9.28215L3.89989 9.58005L3.15576 9.59301C2.4373 9.59301 2.41164 9.60596 2.48862 9.87796C2.74521 10.7199 3.75876 11.6136 4.88778 12.0022L5.68323 12.2742L4.99042 12.6886C3.96404 13.2845 2.75804 13.6212 1.55204 13.6471C0.974702 13.6601 0.5 13.7119 0.5 13.7507C0.5 13.8803 2.06523 14.6056 2.97615 14.8906C5.70889 15.7325 8.95482 15.3698 11.3925 13.9321C13.1245 12.9088 14.8565 10.8753 15.6648 8.90653C16.101 7.85738 16.5372 5.94041 16.5372 5.02078C16.5372 4.42497 16.5757 4.34726 17.2942 3.63487C17.7176 3.22039 18.1153 2.76705 18.1923 2.63753C18.3206 2.39143 18.3077 2.39143 17.6534 2.61162C16.5629 3.0002 16.4089 2.94839 16.9478 2.36553C17.3455 1.95105 17.8202 1.19981 17.8202 0.979614C17.8202 0.940756 17.6278 1.00552 17.4096 1.12209C17.1787 1.25162 16.6655 1.4459 16.2806 1.56247L15.5878 1.78267L14.9592 1.35524C14.6128 1.12209 14.1252 0.863042 13.8686 0.785327C13.2143 0.603992 12.2136 0.629897 11.6234 0.837137C10.0197 1.42 9.00614 2.92248 9.12161 4.56745Z" fill="white"/>
</svg>
